<svg width="191" height="105" viewBox="0 0 191 105" fill="none" xmlns="http://www.w3.org/2000/svg">
<path fill-rule="evenodd" clip-rule="evenodd" d="M73.4 0H60.6V9.59999H51V22.4H60.6V32H73.4V22.4H83V9.59999H73.4V0Z" fill="url(#paint0_linear)"/>
<path d="M3.68 22.8C3.104 24.496 2.144 26.32 0.927998 27.536C1.632 27.952 2.816 28.848 3.392 29.328C4.64 27.92 5.856 25.648 6.624 23.536L3.68 22.8ZM11.264 9.16799C10.944 10.352 10.368 11.984 9.888 13.136H6.112L7.648 12.72C7.52 11.76 7.104 10.256 6.56 9.16799H11.264ZM16.096 21.936V18.736H10.816V16.272H16.608V13.136H13.28C13.76 12.144 14.208 10.896 14.72 9.67999L12.096 9.16799H16.128V6.06399H11.072C10.72 5.00799 10.176 3.75999 9.696 2.73599L6.304 3.53599C6.624 4.30399 6.976 5.19999 7.264 6.06399H1.792V9.16799H6.112L3.488 9.80799C3.936 10.8 4.288 12.144 4.448 13.136H1.312V16.272H7.392V18.736H1.504V21.936H7.392V28.688C7.392 29.04 7.296 29.136 6.944 29.136C6.592 29.136 5.6 29.136 4.64 29.104C5.088 30 5.536 31.312 5.664 32.208C7.36 32.208 8.64 32.176 9.6 31.664C10.56 31.12 10.816 30.32 10.816 28.784V21.936H16.096ZM30.88 13.424H21.056V8.39999C24.192 7.82399 27.488 7.02399 30.144 5.99999L27.2 3.21599C24.896 4.30399 21.024 5.29599 17.504 5.93599V17.168C17.504 20.24 17.408 23.856 16.416 26.992C15.872 25.808 14.816 23.92 13.856 22.48L11.36 23.856C12.256 25.328 13.344 27.344 13.856 28.656L16.384 27.056C16.064 28.176 15.584 29.232 14.976 30.128C15.776 30.544 17.28 31.728 17.888 32.4C20.64 28.4 21.056 21.872 21.056 17.168V16.944H24.192V32.656H27.904V16.944H30.88V13.424Z" fill="white"/>
<path d="M35.808 13.872H47.2V10.384H38.048V7.79199H57.824V9.77599H55.552V12.848H48.288V16.272H55.552V23.792C55.552 24.176 55.424 24.304 55.008 24.304C54.592 24.304 53.248 24.304 51.936 24.272C52.416 25.2 52.96 26.608 53.088 27.536C55.136 27.568 56.608 27.504 57.696 26.96C58.848 26.416 59.136 25.52 59.136 23.856V16.272H62.432V12.848H59.136V10.512H61.76V4.27199H34.304V10.512H35.808V13.872ZM48.832 18.384C49.888 19.856 50.912 22 51.264 23.376L54.368 22C53.92 20.592 52.896 18.608 51.776 17.136L48.832 18.384ZM49.024 28.976C46.4 28.976 45.952 28.752 45.952 27.536V20.176H48.416V16.656H33.536V20.176H36.544V21.424C36.544 24.048 36.096 27.504 32.768 30.064C33.472 30.544 34.912 31.984 35.36 32.688C39.2 29.648 40.064 25.008 40.064 21.52V20.176H42.4V27.568C42.4 31.248 43.84 32.272 48.864 32.272H57.216C61.536 32.272 62.656 31.024 63.232 26.128C62.208 25.936 60.704 25.392 59.872 24.848C59.584 28.4 59.232 28.976 57.024 28.976H49.024Z" fill="white"/>
<path d="M12.576 66.448C15.648 66.448 18.176 65.232 20.128 62.96L17.632 60.016C16.352 61.392 14.752 62.352 12.736 62.352C8.992 62.352 6.56 59.248 6.56 54.096C6.56 49.008 9.248 45.936 12.832 45.936C14.624 45.936 16 46.768 17.184 47.92L19.68 44.912C18.144 43.312 15.744 41.872 12.736 41.872C6.752 41.872 1.728 46.448 1.728 54.256C1.728 62.16 6.592 66.448 12.576 66.448Z" fill="white"/>
<path d="M32.1012 66.448C38.3732 66.448 42.6933 61.744 42.6933 54.064C42.6933 46.384 38.3732 41.872 32.1012 41.872C25.8292 41.872 21.5092 46.352 21.5092 54.064C21.5092 61.744 25.8292 66.448 32.1012 66.448ZM32.1012 62.352C28.5812 62.352 26.3412 59.12 26.3412 54.064C26.3412 48.976 28.5812 45.936 32.1012 45.936C35.6212 45.936 37.8613 48.976 37.8613 54.064C37.8613 59.12 35.6212 62.352 32.1012 62.352Z" fill="white"/>
<path d="M51.1032 66H56.7353L63.9993 42.32H59.1992L56.1273 53.84C55.3913 56.464 54.8473 58.832 54.1113 61.488H53.9512C53.1832 58.832 52.7033 56.464 51.9673 53.84L48.8312 42.32H43.8713L51.1032 66Z" fill="white"/>
<path d="M66.7245 66H71.4605V42.32H66.7245V66Z" fill="white"/>
<path d="M77.287 66H84.039C91.015 66 95.495 62.032 95.495 54.064C95.495 46.064 91.015 42.32 83.783 42.32H77.287V66ZM82.023 62.192V46.096H83.495C87.911 46.096 90.663 48.272 90.663 54.064C90.663 59.824 87.911 62.192 83.495 62.192H82.023Z" fill="white"/>
<path d="M98.7868 58.512H107.523V55.152H98.7868V58.512Z" fill="white"/>
<path d="M110.438 66H126.311V62.032H121.159C120.071 62.032 118.502 62.16 117.318 62.288C121.638 58.064 125.19 53.456 125.19 49.168C125.19 44.752 122.214 41.872 117.734 41.872C114.502 41.872 112.391 43.152 110.215 45.456L112.774 48.016C113.958 46.704 115.399 45.584 117.127 45.584C119.367 45.584 120.678 47.024 120.678 49.424C120.678 53.072 116.871 57.52 110.438 63.28V66Z" fill="white"/>
<path d="M137.346 66.448C142.146 66.448 145.346 62.224 145.346 54.064C145.346 45.904 142.146 41.872 137.346 41.872C132.514 41.872 129.314 45.872 129.314 54.064C129.314 62.224 132.514 66.448 137.346 66.448ZM137.346 62.768C135.298 62.768 133.762 60.72 133.762 54.064C133.762 47.44 135.298 45.52 137.346 45.52C139.362 45.52 140.898 47.44 140.898 54.064C140.898 60.72 139.362 62.768 137.346 62.768Z" fill="white"/>
<path d="M149.374 66H163.614V62.192H159.166V42.32H155.678C154.174 43.248 152.542 43.856 150.174 44.304V47.216H154.462V62.192H149.374V66Z" fill="white"/>
<path d="M174.554 53.872C172.506 53.872 171.194 52.56 171.194 49.776C171.194 46.864 172.634 45.424 174.394 45.424C176.41 45.424 178.042 47.024 178.458 51.344C177.306 53.168 175.834 53.872 174.554 53.872ZM167.258 63.76C168.666 65.2 170.81 66.448 173.754 66.448C178.458 66.448 182.842 62.576 182.842 53.616C182.842 45.392 178.81 41.872 174.33 41.872C170.266 41.872 166.874 44.912 166.874 49.776C166.874 54.8 169.722 57.232 173.658 57.232C175.29 57.232 177.306 56.24 178.522 54.64C178.33 60.592 176.122 62.608 173.466 62.608C172.058 62.608 170.586 61.872 169.722 60.944L167.258 63.76Z" fill="white"/>
<path d="M11.84 80.368H18.4C17.824 82.992 17.12 85.712 16.544 87.664H24.416C23.328 90.736 21.696 93.296 19.648 95.44C15.808 92.08 13.376 87.472 11.84 81.904V80.368ZM26.624 83.92L25.952 84.08H21.568C22.112 81.68 22.624 78.928 23.04 76.496H2.784V80.368H7.84V82.416C7.84 87.664 7.2 95.76 0.863998 101.232C1.696 101.936 3.072 103.568 3.648 104.592C8.32 100.432 10.368 95.152 11.232 90.224C12.64 93.232 14.368 95.824 16.576 98.032C14.336 99.568 11.808 100.688 9.056 101.456C9.824 102.224 10.784 103.792 11.264 104.816C14.368 103.76 17.184 102.384 19.68 100.592C22.144 102.288 25.056 103.6 28.576 104.528C29.152 103.44 30.272 101.744 31.168 100.944C27.968 100.24 25.216 99.152 22.88 97.776C25.888 94.576 28.064 90.416 29.28 84.976L26.624 83.92Z" fill="white"/>
<path d="M42.88 92.08H52.96V94.416H42.88V92.08ZM52.96 81.584V83.568H42.88V81.584H52.96ZM42.88 86.736H52.96V88.88H42.88V86.736ZM62.304 97.904V94.416H56.832V81.584H61.504V78.096H56.832V74.992H52.96V78.096H42.88V74.992H39.104V78.096H34.656V81.584H39.104V94.416H33.696V97.904H43.04C40.768 99.312 36.576 101.04 33.28 101.936C34.112 102.672 35.168 103.952 35.744 104.752C39.136 103.728 43.488 101.968 46.368 100.304L43.328 97.904H62.304ZM49.6 100.464C53.12 101.744 56.768 103.472 58.816 104.688L62.464 102.288C60.064 101.072 55.936 99.376 52.32 98.128L49.6 100.464Z" fill="white"/>
<path d="M71.808 74.992C70.208 79.568 67.392 84.112 64.512 86.992C65.152 87.888 66.208 89.968 66.56 90.832C67.232 90.128 67.904 89.328 68.576 88.432V104.72H72.352V82.576C73.472 80.496 74.496 78.288 75.328 76.144L71.808 74.992ZM82.688 100.88C80.64 100.88 80.32 100.592 80.32 98.672V88.432L83.424 87.216V97.2H86.976V85.808L90.304 84.496C90.272 88.688 90.208 90.8 90.08 91.376C89.952 91.984 89.728 92.112 89.28 92.112C88.928 92.112 88.032 92.08 87.328 92.048C87.776 92.88 88.096 94.48 88.16 95.536C89.28 95.568 90.784 95.536 91.776 95.088C92.832 94.64 93.408 93.808 93.568 92.208C93.76 90.8 93.824 86.96 93.856 81.392L93.984 80.816L91.392 79.824L90.688 80.304L90.208 80.688L86.976 81.904V75.024H83.424V83.312L80.32 84.496V78.448H76.544V86L72.672 87.504L74.144 90.864L76.544 89.936V98.672C76.544 103.056 77.856 104.304 82.4 104.304H89.472C93.504 104.304 94.624 102.704 95.136 97.968C94.112 97.712 92.544 97.072 91.68 96.496C91.392 100.112 91.072 100.88 89.184 100.88H82.688Z" fill="white"/>
<path d="M103.744 75.024C102.144 79.6 99.36 84.112 96.48 86.992C97.12 87.92 98.176 90 98.528 90.96C99.2 90.224 99.872 89.424 100.544 88.592V104.752H104.224V82.928C105.44 80.72 106.496 78.416 107.36 76.176L103.744 75.024ZM126.784 87.76V84.24H115.232L115.872 81.744H125.12V78.288H116.736L117.376 75.728L113.6 75.248C113.376 76.24 113.152 77.232 112.896 78.288H107.264V81.744H112.064C111.84 82.576 111.616 83.408 111.392 84.24H105.44V87.76H110.368C109.696 90.096 108.992 92.24 108.416 94H119.168C118.112 95.152 116.928 96.368 115.744 97.584C114.848 97.008 113.952 96.464 113.056 95.984L110.4 98.288C113.568 100.176 117.376 103.024 119.2 104.88L121.888 102C121.12 101.296 120.032 100.432 118.784 99.568C121.28 97.008 123.872 94.256 125.888 91.984L123.232 90.256L122.656 90.448H113.504C113.76 89.584 114.016 88.688 114.272 87.76H126.784Z" fill="white"/>
<path d="M138.56 77.04C137.248 76.4 134.72 75.536 132.896 75.056L131.488 77.52C133.344 78.096 135.84 79.088 137.12 79.792L138.56 77.04ZM132.576 91.792C134.368 90 136.352 87.984 138.144 85.968L135.872 83.696C133.792 85.84 131.456 88.048 129.792 89.328L132.576 91.792ZM136.192 81.488C134.848 80.816 132.384 79.952 130.624 79.472L129.088 81.968C130.944 82.544 133.408 83.536 134.592 84.24L136.192 81.488ZM158.208 95.856V92.528H145.92V89.584H142.304C144.768 87.696 146.272 85.136 147.04 81.648H149.92V86.032C149.92 88.176 150.176 88.88 150.784 89.488C151.392 90.032 152.352 90.288 153.184 90.288H155.168C155.776 90.288 156.608 90.192 157.12 89.936C157.696 89.648 158.144 89.2 158.4 88.528C158.688 87.888 158.816 86.32 158.88 84.976C157.856 84.592 156.416 83.888 155.68 83.216C155.648 84.624 155.616 85.744 155.584 86.224C155.488 86.736 155.36 86.928 155.264 87.024C155.136 87.088 154.944 87.12 154.752 87.12H154.144C153.984 87.12 153.824 87.088 153.728 86.992C153.632 86.864 153.632 86.544 153.632 86V78.288H147.616C147.712 77.2 147.808 76.08 147.84 74.864L144 74.928C144 76.144 143.968 77.232 143.872 78.288H139.136V81.648H143.264C142.336 84.88 140.448 87.056 136.96 88.4C137.728 88.976 139.168 90.512 139.616 91.248C140.48 90.8 141.312 90.32 142.048 89.776V92.528H129.824V95.856H139.328C136.704 98.224 132.8 100.304 128.992 101.36C129.824 102.128 130.944 103.536 131.488 104.432C135.328 103.056 139.2 100.592 142.048 97.584V104.752H145.92V97.584C148.832 100.528 152.672 102.896 156.512 104.24C157.088 103.312 158.176 101.808 159.04 101.04C155.264 100.048 151.456 98.096 148.8 95.856H158.208Z" fill="white"/>
<path d="M186.176 98.032C185.12 96.784 183.04 94.864 181.44 93.52C181.504 93.072 181.6 92.656 181.632 92.208H186.176V98.032ZM174.208 92.208H178.112C177.856 94.32 177.024 96.656 174.208 98.096V92.208ZM170.592 86.736H178.208V88.976H170.816V104.752H174.208V98.352C174.912 98.96 175.808 100.016 176.256 100.688C178.24 99.568 179.552 98.064 180.352 96.496C181.728 97.776 183.104 99.184 183.84 100.144L186.176 98.096V100.976C186.176 101.328 186.048 101.456 185.632 101.456C185.216 101.488 183.872 101.488 182.56 101.424C183.072 102.32 183.616 103.728 183.776 104.752C185.792 104.752 187.296 104.688 188.384 104.144C189.504 103.568 189.824 102.64 189.824 101.008V88.976H181.728V86.736H190.496V83.504H170.592V86.736ZM181.536 78.32C181.216 77.168 180.768 75.824 180.352 74.736L176.256 75.504C176.512 76.368 176.8 77.36 177.024 78.32H166.144V86.032C165.696 84.496 164.832 82.512 164 80.912L161.248 82.288C162.176 84.24 163.104 86.768 163.392 88.368L166.144 86.896V87.824C166.144 88.752 166.112 89.744 166.08 90.736C164.128 91.728 162.272 92.592 160.96 93.168L162.048 96.752C163.2 96.112 164.416 95.376 165.568 94.672C165.024 97.36 163.968 99.984 161.856 102.128C162.592 102.576 164.096 103.952 164.576 104.656C169.024 100.272 169.76 92.944 169.76 87.856V81.744H190.816V78.32H181.536Z" fill="white"/>
<defs>
<linearGradient id="paint0_linear" x1="51" y1="3.42857" x2="79.5714" y2="28.5714" gradientUnits="userSpaceOnUse">
<stop stop-color="#D80D0D"/>
<stop offset="1" stop-color="#D14FFF"/>
</linearGradient>
</defs>
</svg>
