<svg width="494" height="500" viewBox="0 0 494 500" fill="none" xmlns="http://www.w3.org/2000/svg">
<path d="M365.575 193.297L365.576 193.299C369.311 210.315 371.18 228.998 371.18 249.352C371.18 270.123 369.311 289.014 365.576 306.029C361.839 323.05 356.653 337.773 350.023 350.205C343.398 362.626 335.128 372.338 325.217 379.358C315.733 385.956 305.225 389.252 293.68 389.252C281.717 389.252 271.003 385.954 261.523 379.362C252.026 372.34 243.752 362.625 236.71 350.199C230.081 337.768 224.896 323.047 221.16 306.029C217.425 289.014 215.556 270.123 215.556 249.352C215.556 228.998 217.425 210.315 221.16 193.299L221.161 193.297C224.897 175.861 230.082 161.142 236.708 149.132C243.751 136.704 252.024 127.199 261.518 120.594L261.523 120.59L261.529 120.586C271.01 113.579 281.721 110.076 293.68 110.076C305.219 110.076 315.723 113.576 325.207 120.586L325.217 120.593L325.227 120.6C335.131 127.203 343.399 136.703 350.023 149.123L350.026 149.13C356.653 161.14 361.838 175.859 365.575 193.297ZM107.876 147.486L107.875 147.49C98.2894 177.914 93.5 211.87 93.5 249.352C93.5 286.834 98.2894 320.997 107.874 351.836L107.877 351.844C117.877 382.261 131.631 408.523 149.144 430.623L149.151 430.631C167.081 452.314 188.144 469.207 212.336 481.303L212.346 481.308C236.962 492.99 264.076 498.828 293.68 498.828C322.869 498.828 349.775 492.99 374.39 481.308L374.397 481.305C399.007 469.208 420.072 452.314 437.589 430.626L437.592 430.623C455.106 408.522 468.652 382.258 478.236 351.841C488.238 321 493.236 286.836 493.236 249.352C493.236 211.87 488.239 177.914 478.237 147.489C468.653 116.655 455.106 90.3896 437.589 68.7018C420.072 47.0136 399.005 30.3263 374.393 18.6454C349.777 6.54677 322.87 0.5 293.68 0.5C264.074 0.5 236.959 6.5466 212.341 18.6464C188.146 30.3272 167.082 47.013 149.151 68.6973L149.147 68.7018C131.631 90.3885 117.876 116.653 107.876 147.486Z" stroke="white" stroke-opacity="0.2"/>
<path d="M177.808 172.936C177.808 187.336 179.104 200.44 181.696 212.248C184.288 224.056 187.888 234.28 192.496 242.92C197.392 251.56 203.152 258.328 209.776 263.224C216.4 267.832 223.888 270.136 232.24 270.136C240.304 270.136 247.648 267.832 254.272 263.224C261.184 258.328 266.944 251.56 271.552 242.92C276.16 234.28 279.76 224.056 282.352 212.248C284.944 200.44 286.24 187.336 286.24 172.936C286.24 158.824 284.944 145.864 282.352 134.056C279.76 121.96 276.16 111.736 271.552 103.384C266.944 94.744 261.184 88.12 254.272 83.512C247.648 78.616 240.304 76.168 232.24 76.168C223.888 76.168 216.4 78.616 209.776 83.512C203.152 88.12 197.392 94.744 192.496 103.384C187.888 111.736 184.288 121.96 181.696 134.056C179.104 145.864 177.808 158.824 177.808 172.936ZM94 172.936C94 147.016 97.312 123.544 103.936 102.52C110.848 81.208 120.352 63.064 132.448 48.088C144.832 33.112 159.376 21.592 176.08 13.528C193.072 5.176 211.792 1 232.24 1C252.4 1 270.976 5.176 287.968 13.528C304.96 21.592 319.504 33.112 331.6 48.088C343.696 63.064 353.056 81.208 359.68 102.52C366.592 123.544 370.048 147.016 370.048 172.936C370.048 198.856 366.592 222.472 359.68 243.784C353.056 264.808 343.696 282.952 331.6 298.216C319.504 313.192 304.96 324.856 287.968 333.208C270.976 341.272 252.4 345.304 232.24 345.304C211.792 345.304 193.072 341.272 176.08 333.208C159.376 324.856 144.832 313.192 132.448 298.216C120.352 282.952 110.848 264.808 103.936 243.784C97.312 222.472 94 198.856 94 172.936Z" fill="#161616"/>
<path d="M281.863 134.161L281.864 134.163C284.447 145.931 285.74 158.854 285.74 172.936C285.74 187.307 284.447 200.374 281.864 212.141C279.279 223.914 275.693 234.093 271.111 242.685C266.534 251.266 260.824 257.97 253.985 262.814C247.445 267.363 240.201 269.636 232.24 269.636C223.989 269.636 216.603 267.362 210.067 262.818C203.514 257.972 197.8 251.265 192.934 242.679C188.353 234.089 184.768 223.912 182.184 212.141C179.601 200.374 178.308 187.307 178.308 172.936C178.308 158.854 179.601 145.931 182.184 134.163L182.185 134.161C184.769 122.1 188.355 111.926 192.932 103.628C197.8 95.0397 203.512 88.4785 210.062 83.9224L210.067 83.9184L210.073 83.9141C216.61 79.0826 223.993 76.668 232.24 76.668C240.195 76.668 247.435 79.0802 253.975 83.9141L253.985 83.9213L253.995 83.928C260.827 88.4827 266.535 95.0391 271.111 103.619L271.114 103.626C275.693 111.924 279.279 122.099 281.863 134.161ZM103.46 102.366L103.459 102.37C96.8174 123.45 93.5 146.974 93.5 172.936C93.5 198.898 96.8174 222.565 103.458 243.932L103.461 243.94C110.389 265.013 119.919 283.211 132.056 298.527L132.063 298.535C144.489 313.562 159.088 325.271 175.856 333.655L175.866 333.66C192.93 341.758 211.724 345.804 232.24 345.804C252.469 345.804 271.119 341.758 288.182 333.66L288.189 333.657C305.247 325.272 319.848 313.562 331.989 298.53L331.992 298.527C344.13 283.209 353.516 265.01 360.156 243.936C367.086 222.568 370.548 198.899 370.548 172.936C370.548 146.974 367.087 123.45 360.157 102.369C353.517 81.0072 344.13 62.8055 331.989 47.7738C319.848 32.7419 305.246 21.1748 288.186 13.0779C271.121 4.69092 252.47 0.5 232.24 0.5C211.722 0.5 192.927 4.6906 175.861 13.0784C159.09 21.1752 144.49 32.741 132.063 47.7693L132.063 47.7693L132.059 47.7738C119.919 62.8045 110.388 81.005 103.46 102.366Z" stroke="white" stroke-opacity="0.4"/>
<path d="M149.872 115.624C149.872 125.224 150.736 133.96 152.464 141.832C154.192 149.704 156.592 156.52 159.664 162.28C162.928 168.04 166.768 172.552 171.184 175.816C175.6 178.888 180.592 180.424 186.16 180.424C191.536 180.424 196.432 178.888 200.848 175.816C205.456 172.552 209.296 168.04 212.368 162.28C215.44 156.52 217.84 149.704 219.568 141.832C221.296 133.96 222.16 125.224 222.16 115.624C222.16 106.216 221.296 97.576 219.568 89.704C217.84 81.64 215.44 74.824 212.368 69.256C209.296 63.496 205.456 59.08 200.848 56.008C196.432 52.744 191.536 51.112 186.16 51.112C180.592 51.112 175.6 52.744 171.184 56.008C166.768 59.08 162.928 63.496 159.664 69.256C156.592 74.824 154.192 81.64 152.464 89.704C150.736 97.576 149.872 106.216 149.872 115.624ZM94 115.624C94 98.344 96.208 82.696 100.624 68.68C105.232 54.472 111.568 42.376 119.632 32.392C127.888 22.408 137.584 14.728 148.72 9.352C160.048 3.784 172.528 1 186.16 1C199.6 1 211.984 3.784 223.312 9.352C234.64 14.728 244.336 22.408 252.4 32.392C260.464 42.376 266.704 54.472 271.12 68.68C275.728 82.696 278.032 98.344 278.032 115.624C278.032 132.904 275.728 148.648 271.12 162.856C266.704 176.872 260.464 188.968 252.4 199.144C244.336 209.128 234.64 216.904 223.312 222.472C211.984 227.848 199.6 230.536 186.16 230.536C172.528 230.536 160.048 227.848 148.72 222.472C137.584 216.904 127.888 209.128 119.632 199.144C111.568 188.968 105.232 176.872 100.624 162.856C96.208 148.648 94 132.904 94 115.624Z" fill="#161616"/>
<path d="M219.079 89.8088L219.08 89.8112C220.799 97.6427 221.66 106.246 221.66 115.624C221.66 125.195 220.799 133.894 219.08 141.725C217.359 149.562 214.973 156.333 211.927 162.045C208.886 167.746 205.095 172.194 200.561 175.407C196.229 178.42 191.433 179.924 186.16 179.924C180.693 179.924 175.803 178.418 171.475 175.41C167.13 172.196 163.336 167.745 160.102 162.039C157.057 156.329 154.672 149.56 152.952 141.725C151.233 133.894 150.372 125.195 150.372 115.624C150.372 106.246 151.233 97.6427 152.952 89.8112L152.953 89.8088C154.673 81.7804 157.059 75.0142 160.1 69.5C163.336 63.7917 167.128 59.4385 171.47 56.4184L171.475 56.4143L171.481 56.4101C175.81 53.2106 180.697 51.612 186.16 51.612C191.427 51.612 196.219 53.2082 200.551 56.4101L200.561 56.4173L200.571 56.424C205.099 59.4427 208.887 63.7911 211.927 69.4913L211.93 69.4975C214.973 75.0122 217.358 81.7792 219.079 89.8088ZM100.148 68.5257L100.147 68.5298C95.7134 82.602 93.5 98.3018 93.5 115.624C93.5 132.946 95.7134 148.741 100.146 163.004L100.149 163.012C104.773 177.077 111.135 189.227 119.24 199.455L119.247 199.463C127.545 209.498 137.296 217.319 148.496 222.919L148.506 222.924C159.906 228.334 172.46 231.036 186.16 231.036C199.669 231.036 212.127 228.334 223.526 222.924L223.533 222.921C234.927 217.32 244.68 209.498 252.789 199.458L252.792 199.455C260.898 189.226 267.164 177.075 271.596 163.01C276.222 148.745 278.532 132.948 278.532 115.624C278.532 98.3012 276.223 82.6006 271.596 68.5272C267.164 54.2703 260.898 42.1171 252.789 32.0778C244.68 22.0378 234.926 14.3107 223.53 8.90188C212.129 3.29891 199.67 0.5 186.16 0.5C172.458 0.5 159.903 3.29864 148.501 8.90249C137.298 14.3112 127.546 22.0371 119.247 32.0734L119.247 32.0733L119.243 32.0778C111.135 42.1165 104.772 54.269 100.148 68.5257Z" stroke="white" stroke-opacity="0.6"/>
<path d="M131.248 77.416C131.248 83.816 131.824 89.64 132.976 94.888C134.128 100.136 135.728 104.68 137.776 108.52C139.952 112.36 142.512 115.368 145.456 117.544C148.4 119.592 151.728 120.616 155.44 120.616C159.024 120.616 162.288 119.592 165.232 117.544C168.304 115.368 170.864 112.36 172.912 108.52C174.96 104.68 176.56 100.136 177.712 94.888C178.864 89.64 179.44 83.816 179.44 77.416C179.44 71.144 178.864 65.384 177.712 60.136C176.56 54.76 174.96 50.216 172.912 46.504C170.864 42.664 168.304 39.72 165.232 37.672C162.288 35.496 159.024 34.408 155.44 34.408C151.728 34.408 148.4 35.496 145.456 37.672C142.512 39.72 139.952 42.664 137.776 46.504C135.728 50.216 134.128 54.76 132.976 60.136C131.824 65.384 131.248 71.144 131.248 77.416ZM94 77.416C94 65.896 95.472 55.464 98.416 46.12C101.488 36.648 105.712 28.584 111.088 21.928C116.592 15.272 123.056 10.152 130.48 6.568C138.032 2.856 146.352 1 155.44 1C164.4 1 172.656 2.856 180.208 6.568C187.76 10.152 194.224 15.272 199.6 21.928C204.976 28.584 209.136 36.648 212.08 46.12C215.152 55.464 216.688 65.896 216.688 77.416C216.688 88.936 215.152 99.432 212.08 108.904C209.136 118.248 204.976 126.312 199.6 133.096C194.224 139.752 187.76 144.936 180.208 148.648C172.656 152.232 164.4 154.024 155.44 154.024C146.352 154.024 138.032 152.232 130.48 148.648C123.056 144.936 116.592 139.752 111.088 133.096C105.712 126.312 101.488 118.248 98.416 108.904C95.472 99.432 94 88.936 94 77.416Z" fill="#161616"/>
<path d="M177.223 60.2408L177.224 60.2432C178.367 65.4507 178.94 71.1742 178.94 77.416C178.94 83.7866 178.367 89.5739 177.224 94.7808C176.079 99.9941 174.493 104.493 172.471 108.285C170.454 112.066 167.943 115.01 164.945 117.135C162.085 119.124 158.921 120.116 155.44 120.116C151.829 120.116 148.603 119.122 145.747 117.138C142.874 115.012 140.36 112.065 138.214 108.279C136.193 104.489 134.608 99.9915 133.464 94.7808C132.321 89.5739 131.748 83.7866 131.748 77.416C131.748 71.1742 132.321 65.4507 133.464 60.2432L133.465 60.2408C134.609 54.9004 136.195 50.4062 138.212 46.748C140.36 42.9597 142.872 40.0785 145.742 38.0825L145.747 38.0784L145.753 38.0741C148.61 35.9626 151.833 34.908 155.44 34.908C158.915 34.908 162.075 35.9602 164.935 38.0741L164.945 38.0813L164.955 38.088C167.947 40.0827 170.455 42.9591 172.471 46.7393L172.474 46.7455C174.493 50.4042 176.078 54.8992 177.223 60.2408ZM97.9404 45.9657L97.9391 45.9697C94.9774 55.37 93.5 65.8538 93.5 77.416C93.5 88.9784 94.9774 99.5253 97.9385 109.052L97.9385 109.052L97.941 109.06C101.029 118.453 105.279 126.571 110.696 133.407L110.703 133.415C116.249 140.122 122.768 145.351 130.256 149.095L130.266 149.1C137.89 152.718 146.284 154.524 155.44 154.524C164.469 154.524 172.799 152.718 180.422 149.1L180.429 149.097C188.047 145.352 194.568 140.122 199.989 133.41L199.992 133.407C205.41 126.569 209.597 118.45 212.556 109.056C215.646 99.5275 217.188 88.9794 217.188 77.416C217.188 65.8534 215.647 55.3688 212.556 45.9676C209.597 36.4465 205.41 28.3252 199.989 21.6138C194.568 14.9018 188.046 9.73462 180.425 6.11775C172.801 2.37087 164.47 0.5 155.44 0.5C146.282 0.5 137.887 2.37063 130.261 6.11849C122.77 9.73523 116.25 14.9011 110.703 21.6094L110.703 21.6093L110.699 21.6138C105.279 28.3245 101.028 36.445 97.9404 45.9657Z" stroke="white" stroke-opacity="0.8"/>
<path d="M28.224 51.696H33.552C39.12 51.696 43.392 50.544 46.368 48.24C49.344 45.936 50.832 42.624 50.832 38.304C50.832 33.984 49.344 30.672 46.368 28.368C43.392 26.064 39.12 24.912 33.552 24.912H28.224V51.696ZM90.288 111.744H55.152L28.224 69.984V111.744H0V3.168H43.92C49.968 3.168 55.248 4.08 59.76 5.904C64.272 7.632 67.968 10.032 70.848 13.104C73.824 16.176 76.032 19.728 77.472 23.76C79.008 27.792 79.776 32.112 79.776 36.72C79.776 44.976 77.76 51.696 73.728 56.88C69.792 61.968 63.936 65.424 56.16 67.248L90.288 111.744Z" fill="white"/>
<path d="M121.534 57.312C121.534 62.112 121.966 66.48 122.83 70.416C123.694 74.352 124.894 77.76 126.43 80.64C128.062 83.52 129.982 85.776 132.19 87.408C134.398 88.944 136.894 89.712 139.678 89.712C142.366 89.712 144.814 88.944 147.022 87.408C149.326 85.776 151.246 83.52 152.782 80.64C154.318 77.76 155.518 74.352 156.382 70.416C157.246 66.48 157.678 62.112 157.678 57.312C157.678 52.608 157.246 48.288 156.382 44.352C155.518 40.32 154.318 36.912 152.782 34.128C151.246 31.248 149.326 29.04 147.022 27.504C144.814 25.872 142.366 25.056 139.678 25.056C136.894 25.056 134.398 25.872 132.19 27.504C129.982 29.04 128.062 31.248 126.43 34.128C124.894 36.912 123.694 40.32 122.83 44.352C121.966 48.288 121.534 52.608 121.534 57.312ZM93.5977 57.312C93.5977 48.672 94.7018 40.848 96.9098 33.84C99.2138 26.736 102.382 20.688 106.414 15.696C110.542 10.704 115.39 6.864 120.958 4.176C126.622 1.392 132.862 0 139.678 0C146.398 0 152.59 1.392 158.254 4.176C163.918 6.864 168.766 10.704 172.798 15.696C176.83 20.688 179.95 26.736 182.158 33.84C184.462 40.848 185.614 48.672 185.614 57.312C185.614 65.952 184.462 73.824 182.158 80.928C179.95 87.936 176.83 93.984 172.798 99.072C168.766 104.064 163.918 107.952 158.254 110.736C152.59 113.424 146.398 114.768 139.678 114.768C132.862 114.768 126.622 113.424 120.958 110.736C115.39 107.952 110.542 104.064 106.414 99.072C102.382 93.984 99.2138 87.936 96.9098 80.928C94.7018 73.824 93.5977 65.952 93.5977 57.312Z" fill="white"/>
</svg>
