<svg width="261" height="33" viewBox="0 0 261 33" fill="none" xmlns="http://www.w3.org/2000/svg">
<path d="M23.0686 3.761L23.7796 2.906L24.4906 3.761L24.8866 3.473L24.3106 2.537L25.2916 2.132L25.1386 1.673L24.1126 1.916L24.0226 0.836002H23.5366L23.4466 1.925L22.4206 1.673L22.2586 2.132L23.2396 2.537L22.6726 3.473L23.0686 3.761Z" fill="white" fill-opacity="0.31"/>
<path d="M27.6748 1.934H31.1488C31.2838 2.987 31.5178 3.896 31.8598 4.616C31.4818 4.976 31.0768 5.291 30.6358 5.552C30.7798 5.66 31.0138 5.885 31.1128 6.002C31.4818 5.759 31.8328 5.48 32.1568 5.174C32.5438 5.759 33.0208 6.101 33.5608 6.101C34.1458 6.101 34.3708 5.768 34.4608 4.634C34.2988 4.589 34.0738 4.472 33.9298 4.355C33.8938 5.165 33.8038 5.48 33.5878 5.489C33.2458 5.489 32.9038 5.21 32.5978 4.697C33.1288 4.076 33.5608 3.347 33.8668 2.519L33.2728 2.375C33.0388 3.014 32.7148 3.59 32.3098 4.094C32.0758 3.518 31.8958 2.78 31.7878 1.934H34.3888V1.376H33.3718L33.6688 1.124C33.4078 0.899003 32.9398 0.629002 32.5348 0.449002L32.1478 0.764003C32.4898 0.926003 32.8858 1.169 33.1468 1.376H31.7248C31.6978 1.088 31.6888 0.773002 31.6798 0.467003H31.0408C31.0498 0.773002 31.0678 1.088 31.0948 1.376H27.0538V2.726C27.0538 3.635 26.9638 4.886 26.3068 5.822C26.4418 5.894 26.7028 6.119 26.8018 6.245C27.5308 5.228 27.6748 3.752 27.6748 2.735V1.934ZM29.6188 6.164C30.0418 6.587 30.5548 7.172 30.7978 7.541L31.3558 7.244C31.1038 6.875 30.5638 6.317 30.1498 5.912L29.6188 6.164ZM26.9458 8.387C27.2698 7.946 27.5938 7.244 27.8368 6.758L27.2518 6.533C27.0358 7.019 26.6848 7.703 26.3338 8.126L26.9458 8.387ZM30.8338 2.528H28.0348V3.014H30.8338V2.528ZM30.1318 4.976H28.6918V4.031H30.1318V4.976ZM30.6718 3.545H28.1428V5.462H30.6718V3.545ZM29.6008 8.063C29.0248 8.063 28.9258 8.018 28.9258 7.775V6.29H28.2598V7.784C28.2598 8.432 28.5388 8.603 29.5648 8.603H31.6168C32.5078 8.603 32.7238 8.342 32.8138 7.226C32.6248 7.19 32.3458 7.1 32.1928 6.992C32.1388 7.928 32.0668 8.063 31.5808 8.063H29.6008ZM32.7328 6.524C33.1018 7.064 33.5158 7.793 33.6868 8.243L34.3168 8C34.1278 7.55 33.6958 6.848 33.3268 6.335L32.7328 6.524Z" fill="white" fill-opacity="0.31"/>
<path d="M37.3408 2.096C37.1068 1.718 36.5848 1.124 36.1618 0.701002L35.7118 1.043C36.1348 1.493 36.6298 2.114 36.8638 2.51L37.3408 2.096ZM36.9628 7.082V3.284H35.3338V3.923H36.3688V7.064C36.3688 7.496 36.0808 7.829 35.9188 7.964C36.0448 8.072 36.2338 8.315 36.3058 8.45C36.4228 8.27 36.6208 8.09 37.9258 6.956C37.8718 6.83 37.7908 6.578 37.7548 6.407L36.9628 7.082ZM38.5468 4.382H39.8338V5.165H38.5468V4.382ZM39.8338 3.176V3.887H38.5468V3.176H39.8338ZM39.8338 2.024V2.672H38.5468V2.024H39.8338ZM40.4008 1.475H39.3568C39.4828 1.205 39.6088 0.872002 39.7078 0.584002L39.0598 0.467003C39.0058 0.755002 38.8978 1.151 38.7988 1.475H37.9888V5.165H37.4758V5.741H39.3208C38.8348 6.587 38.0878 7.352 37.3138 7.847C37.4308 7.955 37.6288 8.207 37.7008 8.315C38.4928 7.739 39.2938 6.893 39.8338 5.948V7.901C39.8338 8.027 39.7978 8.063 39.6808 8.063C39.5638 8.072 39.1948 8.081 38.7718 8.063C38.8618 8.225 38.9518 8.468 38.9788 8.63C39.5278 8.63 39.8878 8.621 40.1128 8.522C40.3288 8.414 40.4008 8.243 40.4008 7.91V1.475ZM43.4968 2.447H42.9298V0.539002H42.3178V2.447H40.7068V3.068H42.3178V7.865C42.3178 8 42.2728 8.036 42.1468 8.045C42.0208 8.054 41.6068 8.054 41.1658 8.036C41.2558 8.207 41.3548 8.477 41.3908 8.648C41.9668 8.648 42.3628 8.63 42.6058 8.522C42.8398 8.423 42.9298 8.243 42.9298 7.865V3.068H43.4968V2.447ZM41.9398 5.84C41.8498 5.318 41.5528 4.454 41.2378 3.788L40.7338 3.932C41.0308 4.607 41.3098 5.489 41.3908 6.02L41.9398 5.84Z" fill="white" fill-opacity="0.31"/>
<path d="M46.7965 8H47.5525V4.346C47.5525 3.779 47.4895 2.978 47.4535 2.402H47.4895L48.0115 3.905L49.2625 7.334H49.8205L51.0715 3.905L51.5935 2.402H51.6295C51.5845 2.978 51.5215 3.779 51.5215 4.346V8H52.3045V1.403H51.2965L50.0365 4.931C49.8835 5.39 49.7395 5.849 49.5865 6.308H49.5415C49.3795 5.849 49.2265 5.39 49.0735 4.931L47.8045 1.403H46.7965V8Z" fill="white" fill-opacity="0.31"/>
<path d="M55.1532 8.117C55.7562 8.117 56.3052 7.802 56.7732 7.415H56.8002L56.8722 8H57.5472V4.994C57.5472 3.788 57.0432 2.987 55.8552 2.987C55.0722 2.987 54.3792 3.338 53.9292 3.626L54.2532 4.193C54.6402 3.932 55.1532 3.671 55.7202 3.671C56.5212 3.671 56.7282 4.274 56.7282 4.904C54.6492 5.138 53.7222 5.669 53.7222 6.731C53.7222 7.613 54.3342 8.117 55.1532 8.117ZM55.3872 7.46C54.9012 7.46 54.5232 7.235 54.5232 6.677C54.5232 6.047 55.0812 5.642 56.7282 5.444V6.812C56.2512 7.235 55.8642 7.46 55.3872 7.46Z" fill="white" fill-opacity="0.31"/>
<path d="M59.1083 8H59.9273V4.859C60.2513 4.022 60.7553 3.734 61.1603 3.734C61.3583 3.734 61.4753 3.752 61.6373 3.815L61.7903 3.095C61.6373 3.014 61.4843 2.987 61.2683 2.987C60.7193 2.987 60.2243 3.383 59.8823 4.004H59.8553L59.7833 3.113H59.1083V8Z" fill="white" fill-opacity="0.31"/>
<path d="M63.4615 8.117C63.6775 8.117 63.8215 8.09 63.9385 8.045L63.8215 7.415C63.7315 7.433 63.6955 7.433 63.6505 7.433C63.5245 7.433 63.4165 7.334 63.4165 7.082V0.836002H62.5975V7.028C62.5975 7.721 62.8495 8.117 63.4615 8.117Z" fill="white" fill-opacity="0.31"/>
<path d="M67.3149 8.117C68.4399 8.117 69.4389 7.154 69.4389 5.471C69.4389 3.977 68.7549 2.987 67.4859 2.987C66.9459 2.987 66.3969 3.293 65.9559 3.68L65.9829 2.798V0.836002H65.1639V8H65.8209L65.8929 7.496H65.9199C66.3519 7.892 66.8649 8.117 67.3149 8.117ZM67.1799 7.433C66.8559 7.433 66.4149 7.298 65.9829 6.92V4.355C66.4509 3.914 66.8829 3.68 67.2969 3.68C68.2239 3.68 68.5839 4.409 68.5839 5.489C68.5839 6.704 67.9899 7.433 67.1799 7.433Z" fill="white" fill-opacity="0.31"/>
<path d="M72.6264 8.117C73.8234 8.117 74.8944 7.181 74.8944 5.561C74.8944 3.932 73.8234 2.987 72.6264 2.987C71.4294 2.987 70.3584 3.932 70.3584 5.561C70.3584 7.181 71.4294 8.117 72.6264 8.117ZM72.6264 7.433C71.7804 7.433 71.2134 6.686 71.2134 5.561C71.2134 4.436 71.7804 3.671 72.6264 3.671C73.4724 3.671 74.0484 4.436 74.0484 5.561C74.0484 6.686 73.4724 7.433 72.6264 7.433Z" fill="white" fill-opacity="0.31"/>
<path d="M76.1854 8H77.0044V4.859C77.3284 4.022 77.8324 3.734 78.2374 3.734C78.4354 3.734 78.5524 3.752 78.7144 3.815L78.8674 3.095C78.7144 3.014 78.5614 2.987 78.3454 2.987C77.7964 2.987 77.3014 3.383 76.9594 4.004H76.9324L76.8604 3.113H76.1854V8Z" fill="white" fill-opacity="0.31"/>
<path d="M81.9157 7.982C81.3577 7.325 80.5477 6.506 79.8997 5.984L79.3147 6.497C79.9537 7.019 80.7277 7.793 81.3037 8.504L81.9157 7.982Z" fill="white" fill-opacity="0.31"/>
<path d="M91.8067 3.158V2.429H93.0847V3.158H91.8067ZM91.8067 1.232H93.0847V1.952H91.8067V1.232ZM95.0017 1.952H93.6967V1.232H95.0017V1.952ZM95.0017 3.158H93.6967V2.429H95.0017V3.158ZM91.4377 4.814H93.0847V5.867C92.5627 5.903 92.0947 5.93 91.7167 5.948L91.7887 6.497C92.5447 6.434 93.5797 6.353 94.5967 6.272C94.6417 6.425 94.6867 6.56 94.7137 6.686L95.1727 6.551C95.0737 6.173 94.8127 5.534 94.5607 5.066L94.1287 5.165C94.2277 5.354 94.3267 5.57 94.4077 5.786L93.6697 5.831V4.814H95.4157V6.938C95.4157 7.037 95.3887 7.064 95.2717 7.073C95.1637 7.082 94.7767 7.082 94.3537 7.073C94.4347 7.208 94.5157 7.397 94.5517 7.559C95.1367 7.559 95.5147 7.55 95.7397 7.469C95.9827 7.379 96.0457 7.253 96.0457 6.938V4.256H93.6967V3.653H95.6317V0.737002H91.2037V3.653H93.0847V4.256H90.8257V7.433H91.4377V4.814ZM90.5467 2.123C90.2047 1.772 89.5027 1.295 88.9447 0.971003L88.4947 1.394C89.0617 1.736 89.7457 2.249 90.0787 2.6L90.5467 2.123ZM90.1327 3.599H88.3597V4.22H89.4847V7.091C89.1067 7.262 88.6657 7.649 88.2337 8.126L88.6657 8.702C89.1157 8.108 89.5657 7.577 89.8627 7.577C90.0697 7.577 90.3757 7.874 90.7357 8.099C91.3567 8.477 92.1037 8.594 93.1837 8.594C94.1377 8.594 95.6587 8.54 96.2707 8.495C96.2797 8.306 96.3787 7.991 96.4687 7.811C95.5597 7.91 94.2277 7.982 93.2017 7.982C92.2117 7.982 91.4647 7.91 90.8707 7.541C90.5287 7.334 90.3217 7.145 90.1327 7.055V3.599Z" fill="white" fill-opacity="0.31"/>
<path d="M98.4757 0.971003V6.074H99.1597V1.637H103.489V6.074H104.191V0.971003H98.4757ZM100.924 2.474C100.843 5.633 100.717 7.343 97.3057 8.117C97.4317 8.252 97.6207 8.522 97.6837 8.693C101.284 7.811 101.518 5.867 101.617 2.474H100.924ZM101.5 5.309V7.541C101.5 8.279 101.77 8.468 102.634 8.468H104.236C105.046 8.468 105.253 8.135 105.334 6.74C105.154 6.695 104.875 6.587 104.722 6.47C104.677 7.676 104.614 7.847 104.182 7.847H102.688C102.247 7.847 102.157 7.802 102.157 7.532V5.309H101.5Z" fill="white" fill-opacity="0.31"/>
<path d="M111.328 2.186C111.094 2.897 110.779 3.626 110.41 4.31C109.924 3.689 109.42 3.086 108.952 2.546L108.403 2.834C108.943 3.464 109.519 4.184 110.059 4.913C109.465 5.858 108.754 6.668 108.016 7.172C108.178 7.289 108.394 7.523 108.52 7.685C109.231 7.154 109.897 6.371 110.473 5.462C111.031 6.254 111.517 6.992 111.832 7.559L112.444 7.199C112.075 6.551 111.49 5.714 110.824 4.859C111.265 4.067 111.625 3.212 111.913 2.339L111.328 2.186ZM107.305 0.899002V3.563C107.305 4.967 107.215 6.902 106.234 8.261C106.396 8.342 106.675 8.567 106.792 8.711C107.827 7.262 107.98 5.057 107.98 3.563V1.547H112.678C112.687 6.2 112.696 8.594 113.857 8.594C114.343 8.594 114.478 8.207 114.55 7.028C114.415 6.929 114.226 6.722 114.109 6.56C114.091 7.298 114.037 7.91 113.911 7.91C113.308 7.91 113.308 5.129 113.335 0.899002H107.305Z" fill="white" fill-opacity="0.31"/>
<path d="M117.916 7.982C117.358 7.325 116.548 6.506 115.9 5.984L115.315 6.497C115.954 7.019 116.728 7.793 117.304 8.504L117.916 7.982Z" fill="white" fill-opacity="0.31"/>
<path d="M128.959 2.996H127.672V1.709H128.959V2.996ZM131.2 3.617V5.291C131.164 5.3 131.11 5.3 131.02 5.3H129.94C129.634 5.3 129.598 5.264 129.598 5.03V3.617H131.2ZM125.548 7.478V5.804C125.674 5.903 125.863 6.137 125.935 6.272C127.285 5.606 127.618 4.562 127.663 3.617H128.959V5.03C128.959 5.75 129.13 5.939 129.868 5.939H131.083H131.2V7.478H125.548ZM127.051 3.617C127.006 4.391 126.745 5.201 125.548 5.795V3.617H127.051ZM132.262 1.709V1.061H124.414V1.709H127.06V2.996H124.891V8.657H125.548V8.099H131.2V8.621H131.866V2.996H129.598V1.709H132.262Z" fill="white" fill-opacity="0.31"/>
<path d="M133.711 8.693H134.377V2.276H133.711V8.693ZM134.017 0.782002C134.476 1.304 135.025 2.024 135.268 2.465L135.817 2.078C135.547 1.646 134.989 0.953002 134.53 0.458002L134.017 0.782002ZM141.019 0.800003H136.078V1.439H140.353V7.802C140.353 7.973 140.29 8.027 140.119 8.036C139.93 8.054 139.291 8.054 138.634 8.027C138.742 8.207 138.841 8.495 138.877 8.675C139.732 8.684 140.281 8.675 140.596 8.567C140.902 8.45 141.019 8.252 141.019 7.802V0.800003Z" fill="white" fill-opacity="0.31"/>
<path d="M149.596 2.708C149.452 3.293 149.263 3.914 149.083 4.328L149.65 4.526C149.938 3.932 150.217 2.996 150.433 2.177L149.947 2.033L149.83 2.06H146.833C146.986 1.592 147.112 1.097 147.211 0.593003L146.545 0.485002C146.266 1.952 145.753 3.374 145.033 4.265C145.195 4.346 145.501 4.535 145.627 4.634C146.005 4.121 146.338 3.455 146.617 2.708H149.596ZM144.322 1.934V5.849H143.143V1.934H144.322ZM144.961 6.497V1.286H142.504V7.19H143.143V6.497H144.961ZM148.03 3.374H147.373V4.13C147.373 5.327 147.166 7.019 144.727 8.189C144.88 8.306 145.105 8.54 145.195 8.693C146.779 7.91 147.49 6.902 147.796 5.921C148.237 7.208 148.939 8.171 150.055 8.657C150.154 8.477 150.352 8.225 150.505 8.09C149.119 7.577 148.363 6.227 148.021 4.553C148.03 4.409 148.03 4.274 148.03 4.148V3.374Z" fill="white" fill-opacity="0.31"/>
<path d="M154.087 2.735L153.952 2.762H151.522V3.428H153.718C153.286 5.201 152.377 6.551 151.234 7.298C151.396 7.397 151.666 7.658 151.765 7.802C153.034 6.911 154.087 5.246 154.519 2.906L154.087 2.735ZM158.173 2.15C157.741 2.762 157.039 3.554 156.436 4.112C156.157 3.644 155.914 3.149 155.716 2.654V0.494002H155.014V7.775C155.014 7.928 154.96 7.973 154.807 7.982C154.672 7.982 154.204 7.982 153.691 7.964C153.799 8.162 153.916 8.495 153.943 8.693C154.627 8.693 155.077 8.675 155.347 8.549C155.608 8.432 155.716 8.216 155.716 7.775V3.977C156.535 5.597 157.696 7.019 159.091 7.757C159.208 7.559 159.433 7.289 159.586 7.154C158.506 6.65 157.534 5.714 156.769 4.607C157.399 4.076 158.182 3.266 158.776 2.582L158.173 2.15Z" fill="white" fill-opacity="0.31"/>
<path d="M162.916 7.982C162.358 7.325 161.548 6.506 160.9 5.984L160.315 6.497C160.954 7.019 161.728 7.793 162.304 8.504L162.916 7.982Z" fill="white" fill-opacity="0.31"/>
<path d="M170.566 5.318L170.89 4.31C171.124 3.563 171.34 2.852 171.547 2.078H171.583C171.799 2.843 172.006 3.563 172.249 4.31L172.564 5.318H170.566ZM173.401 8H174.283L172.042 1.403H171.115L168.874 8H169.72L170.359 5.984H172.771L173.401 8Z" fill="white" fill-opacity="0.31"/>
<path d="M175.141 8H175.96V4.454C176.455 3.959 176.797 3.707 177.301 3.707C177.949 3.707 178.228 4.094 178.228 5.012V8H179.047V4.904C179.047 3.653 178.579 2.987 177.553 2.987C176.887 2.987 176.383 3.356 175.915 3.815H175.888L175.816 3.113H175.141V8Z" fill="white" fill-opacity="0.31"/>
<path d="M182.29 10.25C183.802 10.25 184.756 9.467 184.756 8.558C184.756 7.757 184.189 7.397 183.055 7.397H182.101C181.444 7.397 181.246 7.181 181.246 6.866C181.246 6.596 181.381 6.434 181.561 6.281C181.777 6.389 182.047 6.452 182.29 6.452C183.28 6.452 184.072 5.795 184.072 4.751C184.072 4.328 183.91 3.968 183.676 3.743H184.675V3.113H182.974C182.803 3.05 182.56 2.987 182.29 2.987C181.3 2.987 180.454 3.662 180.454 4.733C180.454 5.318 180.769 5.786 181.093 6.047V6.083C180.841 6.263 180.544 6.587 180.544 6.992C180.544 7.379 180.733 7.64 180.994 7.793V7.829C180.535 8.126 180.265 8.522 180.265 8.936C180.265 9.782 181.093 10.25 182.29 10.25ZM182.29 5.894C181.723 5.894 181.246 5.444 181.246 4.733C181.246 4.013 181.714 3.59 182.29 3.59C182.866 3.59 183.325 4.022 183.325 4.733C183.325 5.444 182.848 5.894 182.29 5.894ZM182.407 9.692C181.516 9.692 180.985 9.35 180.985 8.828C180.985 8.54 181.138 8.252 181.489 8C181.705 8.054 181.939 8.081 182.119 8.081H182.965C183.613 8.081 183.964 8.234 183.964 8.684C183.964 9.197 183.343 9.692 182.407 9.692Z" fill="white" fill-opacity="0.31"/>
<path d="M185.715 8H186.534V3.113H185.715V8ZM186.129 2.105C186.453 2.105 186.696 1.88 186.696 1.574C186.696 1.241 186.453 1.043 186.129 1.043C185.805 1.043 185.562 1.241 185.562 1.574C185.562 1.88 185.805 2.105 186.129 2.105Z" fill="white" fill-opacity="0.31"/>
<path d="M190.164 8.117C190.83 8.117 191.352 7.892 191.784 7.613L191.487 7.073C191.127 7.316 190.74 7.46 190.263 7.46C189.336 7.46 188.697 6.794 188.643 5.75H191.937C191.955 5.633 191.973 5.462 191.973 5.282C191.973 3.887 191.271 2.987 190.029 2.987C188.895 2.987 187.824 3.977 187.824 5.561C187.824 7.172 188.868 8.117 190.164 8.117ZM188.634 5.165C188.733 4.202 189.345 3.644 190.038 3.644C190.803 3.644 191.253 4.175 191.253 5.165H188.634Z" fill="white" fill-opacity="0.31"/>
<path d="M192.745 8H196.894V7.289H195.067C194.734 7.289 194.329 7.325 193.987 7.352C195.535 5.885 196.57 4.544 196.57 3.23C196.57 2.051 195.832 1.277 194.653 1.277C193.816 1.277 193.249 1.664 192.709 2.249L193.186 2.717C193.546 2.285 194.014 1.952 194.554 1.952C195.373 1.952 195.769 2.501 195.769 3.257C195.769 4.391 194.815 5.705 192.745 7.514V8Z" fill="white" fill-opacity="0.31"/>
<path d="M199.843 8.117C201.094 8.117 201.895 6.974 201.895 4.679C201.895 2.393 201.094 1.277 199.843 1.277C198.583 1.277 197.782 2.384 197.782 4.679C197.782 6.974 198.583 8.117 199.843 8.117ZM199.843 7.46C199.087 7.46 198.583 6.623 198.583 4.679C198.583 2.753 199.087 1.943 199.843 1.943C200.59 1.943 201.094 2.753 201.094 4.679C201.094 6.623 200.59 7.46 199.843 7.46Z" fill="white" fill-opacity="0.31"/>
<path d="M204.835 8.117C206.086 8.117 206.887 6.974 206.887 4.679C206.887 2.393 206.086 1.277 204.835 1.277C203.575 1.277 202.774 2.384 202.774 4.679C202.774 6.974 203.575 8.117 204.835 8.117ZM204.835 7.46C204.079 7.46 203.575 6.623 203.575 4.679C203.575 2.753 204.079 1.943 204.835 1.943C205.582 1.943 206.086 2.753 206.086 4.679C206.086 6.623 205.582 7.46 204.835 7.46Z" fill="white" fill-opacity="0.31"/>
<path d="M209.827 8.117C211.078 8.117 211.879 6.974 211.879 4.679C211.879 2.393 211.078 1.277 209.827 1.277C208.567 1.277 207.766 2.384 207.766 4.679C207.766 6.974 208.567 8.117 209.827 8.117ZM209.827 7.46C209.071 7.46 208.567 6.623 208.567 4.679C208.567 2.753 209.071 1.943 209.827 1.943C210.574 1.943 211.078 2.753 211.078 4.679C211.078 6.623 210.574 7.46 209.827 7.46Z" fill="white" fill-opacity="0.31"/>
<path d="M215.386 7.982C214.828 7.325 214.018 6.506 213.37 5.984L212.785 6.497C213.424 7.019 214.198 7.793 214.774 8.504L215.386 7.982Z" fill="white" fill-opacity="0.31"/>
<path d="M229.687 1.214H227.563C227.491 0.989002 227.338 0.674003 227.194 0.440002L226.591 0.602003C226.69 0.782002 226.789 1.007 226.87 1.214H224.647V1.745H229.687V1.214ZM229.93 2.663H228.382C228.526 2.429 228.67 2.15 228.823 1.889L228.148 1.763C228.049 2.015 227.887 2.375 227.734 2.663H226.357L226.438 2.645C226.375 2.411 226.213 2.033 226.051 1.754L225.457 1.871C225.592 2.105 225.718 2.429 225.79 2.663H224.404V3.212H229.93V2.663ZM223.585 1.619V2.87H222.541V1.619H223.585ZM222.541 4.724V3.446H223.585V4.724H222.541ZM222.541 6.605V5.3H223.585V6.605H222.541ZM224.152 7.208V1.025H222.019V7.982H222.541V7.208H224.152ZM225.502 5.111H226.807V5.705H225.502V5.111ZM225.502 4.103H226.807V4.697H225.502V4.103ZM228.778 4.697H227.41V4.103H228.778V4.697ZM228.778 5.705H227.41V5.111H228.778V5.705ZM227.437 7.919V7.235H229.588V6.713H227.437V6.137H229.399V3.68H224.899V6.137H226.78V6.713H224.701V7.235H226.78V7.919H224.134V8.45H229.939V7.919H227.437Z" fill="white" fill-opacity="0.31"/>
<path d="M233.386 7.982C232.828 7.325 232.018 6.506 231.37 5.984L230.785 6.497C231.424 7.019 232.198 7.793 232.774 8.504L233.386 7.982Z" fill="white" fill-opacity="0.31"/>
<path d="M8.406 16.589V15.914H4.743C4.779 15.572 4.788 15.221 4.788 14.906V13.844H8.019V13.169H0.944999V13.844H4.095V14.897C4.095 15.212 4.086 15.563 4.041 15.914H0.629999V16.589H3.906C3.591 17.849 2.718 19.172 0.404999 20.117C0.548999 20.252 0.755999 20.504 0.836999 20.675C3.123 19.73 4.104 18.407 4.509 17.093C5.22 18.839 6.417 20.072 8.208 20.666C8.307 20.486 8.505 20.207 8.658 20.063C6.84 19.541 5.616 18.29 4.986 16.589H8.406Z" fill="white" fill-opacity="0.31"/>
<path d="M13.86 19.757V17.471H16.749V16.823H13.86V14.861H17.082V14.204H13.86V12.476H13.176V14.204H11.349C11.547 13.745 11.709 13.259 11.853 12.764L11.178 12.62C10.827 13.898 10.251 15.14 9.513 15.932C9.693 16.022 9.99 16.22 10.116 16.328C10.458 15.923 10.773 15.428 11.061 14.861H13.176V16.823H10.503V17.471H13.176V19.757H9.531V20.405H17.505V19.757H13.86Z" fill="white" fill-opacity="0.31"/>
<path d="M19.602 15.788C19.521 15.356 19.224 14.654 18.927 14.132L18.432 14.366C18.711 14.906 18.999 15.608 19.08 16.058L19.602 15.788ZM26.577 13.952V13.358H23.688C23.589 13.079 23.463 12.728 23.346 12.449L22.644 12.593C22.734 12.818 22.833 13.106 22.905 13.358H19.755V16.148C19.755 16.382 19.755 16.634 19.737 16.877C19.197 17.183 18.675 17.453 18.297 17.624L18.531 18.227C18.9 18.02 19.287 17.777 19.683 17.543C19.566 18.497 19.278 19.487 18.576 20.252C18.702 20.333 18.972 20.576 19.062 20.72C20.241 19.478 20.412 17.552 20.412 16.157V13.952H26.577ZM23.229 17.669H23.868V15.662C24.039 15.509 24.192 15.365 24.345 15.203H26.433V14.636H20.88V15.203H23.517C22.734 15.914 21.6 16.535 20.52 16.922C20.655 17.048 20.871 17.309 20.961 17.435C21.708 17.12 22.527 16.688 23.229 16.175V17.669ZM25.236 18.434V19.784H21.987V18.434H25.236ZM21.33 20.684H21.987V20.351H25.236V20.657H25.911V17.867H21.33V20.684ZM24.111 16.112C24.849 16.481 25.758 17.048 26.208 17.444L26.64 16.985C26.163 16.598 25.254 16.058 24.534 15.707L24.111 16.112Z" fill="white" fill-opacity="0.31"/>
<path d="M35.55 16.454H31.878V15.5C32.904 14.978 34.056 14.177 34.821 13.421L34.317 13.043L34.173 13.079H28.377V13.736H33.444C32.814 14.258 31.941 14.816 31.194 15.158V16.454H27.486V17.12H31.194V19.793C31.194 19.955 31.131 20 30.951 20.009C30.753 20.018 30.096 20.027 29.367 20C29.484 20.189 29.61 20.486 29.655 20.684C30.519 20.684 31.086 20.675 31.419 20.558C31.761 20.459 31.878 20.252 31.878 19.802V17.12H35.55V16.454Z" fill="white" fill-opacity="0.31"/>
<path d="M38.601 15.014H39.888V14.384H38.601V12.467H37.962V14.384H36.513V15.014H37.881C37.557 16.229 36.936 17.624 36.297 18.389C36.414 18.551 36.603 18.821 36.684 19.001C37.161 18.398 37.611 17.435 37.962 16.445V20.639H38.601V16.571C38.943 17.012 39.339 17.57 39.51 17.858L39.933 17.327C39.744 17.084 38.925 16.139 38.601 15.815V15.014ZM40.914 19.46V17.912H43.65V19.46H40.914ZM43.65 13.628V15.131H40.914V13.628H43.65ZM40.914 15.743H43.65V17.291H40.914V15.743ZM40.275 12.998V20.585H40.914V20.081H43.65V20.585H44.307V12.998H40.275Z" fill="white" fill-opacity="0.31"/>
<path d="M48.069 19.982C47.511 19.325 46.701 18.506 46.053 17.984L45.468 18.497C46.107 19.019 46.881 19.793 47.457 20.504L48.069 19.982Z" fill="white" fill-opacity="0.31"/>
<path d="M56.421 12.476C55.962 13.817 55.197 15.149 54.378 16.022C54.486 16.166 54.684 16.517 54.747 16.67C55.035 16.355 55.323 15.995 55.584 15.581V20.675H56.241V14.483C56.547 13.898 56.817 13.277 57.042 12.674L56.421 12.476ZM59.508 15.842V17.741H57.96V15.842H59.508ZM60.129 18.335V15.248H57.321V18.956H57.96V18.335H60.129ZM62.631 13.34H57.06V13.988H61.317V19.766C61.317 19.946 61.254 19.991 61.065 20C60.867 20.009 60.21 20.018 59.49 19.991C59.589 20.18 59.706 20.486 59.733 20.675C60.606 20.675 61.2 20.657 61.533 20.549C61.848 20.441 61.974 20.243 61.974 19.766V13.988H62.631V13.34Z" fill="white" fill-opacity="0.31"/>
<path d="M65.196 13.556H69.966V15.32H65.196V13.556ZM67.887 17.966H70.902V17.345H67.887V15.959H70.659V12.908H64.539V15.959H67.212V19.604C66.465 19.316 65.898 18.776 65.538 17.831C65.637 17.453 65.709 17.075 65.763 16.706L65.052 16.625C64.926 17.912 64.494 19.424 63.432 20.243C63.567 20.333 63.792 20.558 63.9 20.693C64.539 20.198 64.98 19.469 65.277 18.668C66.132 20.225 67.509 20.567 69.417 20.567H71.397C71.433 20.378 71.541 20.081 71.64 19.919C71.262 19.928 69.732 19.928 69.453 19.928C68.886 19.928 68.364 19.892 67.887 19.793V17.966Z" fill="white" fill-opacity="0.31"/>
<path d="M79.083 16.22H76.095V15.482H79.083V16.22ZM79.083 17.444H76.095V16.688H79.083V17.444ZM79.083 18.668H76.095V17.912H79.083V18.668ZM75.465 14.969V19.172H79.74V14.969H77.598C77.706 14.735 77.814 14.483 77.922 14.213H80.496V13.655H78.813C79.029 13.358 79.263 12.989 79.47 12.665L78.822 12.476C78.669 12.818 78.381 13.313 78.129 13.655H76.473L76.941 13.439C76.824 13.151 76.545 12.737 76.293 12.431L75.735 12.665C75.96 12.971 76.212 13.367 76.338 13.655H74.817V14.213H77.175C77.13 14.465 77.049 14.735 76.977 14.969H75.465ZM74.439 14.276C74.169 13.871 73.593 13.25 73.125 12.818L72.621 13.133C73.08 13.592 73.638 14.24 73.89 14.645L74.439 14.276ZM74.376 15.662H72.486V16.292H73.728V19.055C73.332 19.208 72.873 19.577 72.414 20.036L72.819 20.576C73.287 20.027 73.746 19.55 74.052 19.55C74.268 19.55 74.547 19.811 74.925 20.036C75.537 20.387 76.311 20.477 77.373 20.477C78.219 20.477 79.794 20.423 80.433 20.387C80.451 20.189 80.55 19.892 80.622 19.721C79.758 19.82 78.426 19.883 77.382 19.883C76.41 19.883 75.645 19.82 75.06 19.505C74.754 19.325 74.556 19.172 74.376 19.082V15.662Z" fill="white" fill-opacity="0.31"/>
<path d="M87.039 17.318H89.064V16.688H87.039V14.969H86.373V16.688H84.357V17.318H86.373V19.847H84.006V20.477H89.415V19.847H87.039V17.318ZM84.78 13.862C84.942 13.457 85.095 13.043 85.212 12.638L84.528 12.467C84.402 12.926 84.24 13.403 84.051 13.862H81.594V14.501H83.754C83.196 15.644 82.404 16.706 81.378 17.435C81.486 17.579 81.657 17.858 81.72 18.038C82.098 17.768 82.449 17.471 82.764 17.129V20.657H83.421V16.337C83.844 15.761 84.195 15.149 84.51 14.501H89.415V13.862H84.78Z" fill="white" fill-opacity="0.31"/>
<path d="M98.343 14.213C98.064 13.79 97.461 13.178 96.939 12.746L96.453 13.043C96.975 13.493 97.56 14.132 97.83 14.555L98.343 14.213ZM93.834 17.318V18.974H91.71V17.318H93.834ZM94.491 19.595V16.697H91.062V20.243H91.71V19.595H94.491ZM97.533 16.238C97.272 16.913 96.903 17.552 96.453 18.137C96.282 17.489 96.156 16.706 96.057 15.824H98.514V15.194H95.994C95.931 14.357 95.895 13.439 95.904 12.485H95.229C95.238 13.421 95.274 14.339 95.346 15.194H93.123V14.078H94.68V13.466H93.123V12.476H92.466V13.466H90.882V14.078H92.466V15.194H90.495V15.824H95.391C95.508 16.949 95.688 17.939 95.94 18.74C95.4 19.298 94.779 19.793 94.113 20.153C94.275 20.288 94.482 20.504 94.59 20.666C95.166 20.324 95.706 19.901 96.201 19.406C96.561 20.207 97.029 20.675 97.623 20.675C98.271 20.675 98.496 20.261 98.613 18.884C98.442 18.821 98.217 18.677 98.073 18.533C98.019 19.604 97.92 20.018 97.686 20.018C97.308 20.018 96.966 19.595 96.687 18.866C97.281 18.146 97.776 17.345 98.136 16.472L97.533 16.238Z" fill="white" fill-opacity="0.31"/>
<path d="M102.069 19.982C101.511 19.325 100.701 18.506 100.053 17.984L99.468 18.497C100.107 19.019 100.881 19.793 101.457 20.504L102.069 19.982Z" fill="white" fill-opacity="0.31"/>
<path d="M114.345 13.799C114.264 13.43 114.066 12.854 113.895 12.404L113.265 12.566C113.436 13.016 113.625 13.619 113.697 13.997L114.345 13.799ZM116.424 14.096H111.609V14.726H116.424V14.096ZM113.481 19.073C113.382 18.164 113.112 16.553 112.806 15.302L112.221 15.428C112.5 16.679 112.752 18.326 112.833 19.262L113.481 19.073ZM111.24 16.427L110.286 16.706V14.906H111.231V14.285H110.286V12.476H109.638V14.285H108.531V14.906H109.638V16.877C109.179 17.003 108.756 17.12 108.414 17.201L108.603 17.849L109.638 17.543V19.91C109.638 20.036 109.593 20.072 109.476 20.072C109.386 20.081 109.044 20.081 108.684 20.072C108.765 20.243 108.855 20.513 108.882 20.675C109.431 20.684 109.764 20.666 109.98 20.558C110.205 20.45 110.286 20.288 110.286 19.919V17.354C110.628 17.255 110.97 17.147 111.321 17.039L111.24 16.427ZM114.849 19.676C115.182 18.488 115.542 16.733 115.785 15.347L115.074 15.221C114.912 16.571 114.561 18.479 114.228 19.676H111.186V20.315H116.658V19.676H114.849Z" fill="white" fill-opacity="0.31"/>
<path d="M119.097 15.131H121.203V16.238H119.097V15.131ZM119.097 13.448H121.203V14.537H119.097V13.448ZM124.011 14.537H121.86V13.448H124.011V14.537ZM124.011 16.238H121.86V15.131H124.011V16.238ZM121.905 19.775V18.533H125.019V17.876H121.905V16.868H124.722V12.818H118.413V16.868H121.158V17.876H118.125V18.533H121.158V19.775H117.522V20.432H125.505V19.775H121.905Z" fill="white" fill-opacity="0.31"/>
<path d="M129.069 19.982C128.511 19.325 127.701 18.506 127.053 17.984L126.468 18.497C127.107 19.019 127.881 19.793 128.457 20.504L129.069 19.982Z" fill="white" fill-opacity="0.31"/>
<path d="M142.344 17.138C142.281 17.687 142.056 18.29 141.993 18.443C141.939 18.587 141.876 18.686 141.786 18.713C141.84 18.839 141.921 19.073 141.948 19.181C142.047 19.127 142.209 19.082 143.073 18.947C143.1 19.055 143.127 19.163 143.145 19.262L143.523 19.109C143.46 18.785 143.28 18.263 143.073 17.876L142.722 18.011C142.812 18.191 142.884 18.398 142.956 18.605L142.344 18.686C142.515 18.308 142.704 17.786 142.821 17.282L142.344 17.138ZM137.133 16.445H137.709V15.131C138.105 15.473 138.618 15.95 138.816 16.166L139.194 15.707C138.978 15.536 138.087 14.852 137.718 14.609H139.257V14.069H137.709V13.331C138.231 13.268 138.717 13.178 139.104 13.061L138.681 12.602C137.97 12.809 136.683 12.962 135.612 13.043C135.684 13.178 135.756 13.376 135.774 13.511C136.206 13.493 136.674 13.457 137.133 13.403V14.069H135.513V14.609H136.908C136.521 15.212 135.9 15.797 135.306 16.085C135.441 16.211 135.594 16.418 135.675 16.553C136.197 16.247 136.737 15.725 137.133 15.176V16.445ZM138.366 17.714C138.186 18.209 137.943 18.614 137.637 18.947C137.313 18.794 136.971 18.65 136.647 18.515C136.791 18.281 136.944 18.002 137.088 17.714H138.366ZM139.068 19.757C138.825 19.586 138.51 19.397 138.159 19.217C138.573 18.713 138.888 18.083 139.095 17.282L138.735 17.129L138.618 17.147H137.376C137.439 16.985 137.502 16.832 137.565 16.679L136.989 16.562C136.917 16.751 136.845 16.94 136.746 17.147H135.558V17.714H136.467C136.269 18.092 136.053 18.443 135.864 18.731C136.296 18.893 136.782 19.1 137.232 19.325C136.728 19.73 136.107 20.009 135.405 20.18C135.54 20.279 135.747 20.522 135.837 20.648C136.575 20.432 137.241 20.108 137.781 19.613C138.141 19.811 138.447 20.009 138.681 20.18L139.068 19.757ZM139.968 16.427V15.473H140.94C140.922 15.779 140.886 16.094 140.832 16.427H139.968ZM139.968 14.006H140.967V14.582C140.967 14.699 140.967 14.825 140.967 14.951H139.968V14.006ZM142.587 14.951H141.561C141.561 14.825 141.561 14.708 141.561 14.591V14.006H142.587V14.951ZM142.587 16.427H141.444C141.489 16.094 141.516 15.779 141.534 15.473H142.587V16.427ZM142.011 20.099C141.768 20.099 141.732 20.063 141.732 19.865V17.345H141.255C141.282 17.219 141.318 17.102 141.345 16.976H143.163V13.457H141.372C141.471 13.196 141.597 12.881 141.714 12.584L141.021 12.467C140.967 12.755 140.85 13.142 140.733 13.457H139.41V16.976H140.724C140.472 18.092 139.932 19.253 138.834 20.234C138.996 20.333 139.221 20.522 139.329 20.639C140.346 19.712 140.904 18.605 141.201 17.543V19.865C141.201 20.441 141.354 20.585 141.957 20.585H142.92C143.397 20.585 143.55 20.369 143.604 19.586C143.451 19.55 143.244 19.469 143.127 19.379C143.109 20.009 143.064 20.099 142.875 20.099H142.011Z" fill="white" fill-opacity="0.31"/>
<path d="M148.329 12.899H147.744V14.141H146.79V12.584H146.169V14.141H145.269V12.899H144.711V14.672H148.329V12.899ZM148.644 15.176H144.423V15.725H148.644V15.176ZM147.582 17.624H145.485V16.742H147.582V17.624ZM148.239 16.22H144.864V18.146H148.239V16.22ZM146.115 19.406C146.07 19.091 145.899 18.596 145.683 18.245L145.134 18.407C145.323 18.785 145.485 19.271 145.521 19.604L146.115 19.406ZM151.767 19.883C151.713 19.883 151.668 19.865 151.641 19.829C151.605 19.784 151.596 19.622 151.596 19.343V12.917H150.948V12.935H149.607V12.917H148.977V15.878C148.977 17.003 148.896 18.389 148.248 19.532L148.239 19.325L147.375 19.433C147.528 19.145 147.69 18.767 147.852 18.407L147.258 18.218C147.159 18.569 146.952 19.082 146.79 19.406L147.006 19.487C145.998 19.613 145.044 19.721 144.36 19.784L144.468 20.378C145.413 20.252 146.727 20.09 147.996 19.919C147.906 20.045 147.807 20.162 147.699 20.279C147.834 20.36 148.086 20.585 148.185 20.711C149.427 19.397 149.607 17.363 149.607 15.887V13.565H150.948V19.271C150.948 20.036 151.002 20.189 151.137 20.315C151.263 20.432 151.452 20.486 151.623 20.486H152.037C152.208 20.486 152.352 20.459 152.469 20.378C152.595 20.288 152.676 20.153 152.703 19.928C152.757 19.721 152.784 19.163 152.793 18.713C152.613 18.65 152.388 18.533 152.244 18.407C152.244 18.938 152.226 19.352 152.217 19.532C152.199 19.712 152.172 19.784 152.136 19.829C152.1 19.865 152.037 19.883 151.983 19.883H151.767Z" fill="white" fill-opacity="0.31"/>
<path d="M158.652 14.474C158.562 14.969 158.427 15.59 158.292 16.013H160.047V17.057H160.632V16.013H161.577V15.473H160.632V14.114H161.46V13.574H160.632V12.611H160.047V13.574H158.688V14.114H160.047V15.473H159.057C159.12 15.167 159.192 14.834 159.255 14.537L158.652 14.474ZM155.097 12.521C154.674 13.907 153.963 15.275 153.198 16.175C153.306 16.337 153.477 16.697 153.54 16.85C153.828 16.499 154.116 16.085 154.377 15.635V20.693H154.998V14.465C155.259 13.889 155.493 13.295 155.682 12.701L155.097 12.521ZM157.905 13.88C157.788 14.294 157.635 14.681 157.446 15.023C157.239 14.861 156.996 14.672 156.789 14.528L156.456 14.942C156.681 15.104 156.933 15.311 157.149 15.5C156.744 16.076 156.231 16.508 155.673 16.76C155.808 16.877 155.97 17.093 156.042 17.228C157.239 16.598 158.202 15.374 158.571 13.475L158.202 13.34L158.094 13.358H157.122C157.221 13.133 157.302 12.899 157.374 12.683L156.807 12.602C156.573 13.367 156.096 14.33 155.349 15.05C155.493 15.122 155.691 15.275 155.79 15.392C156.249 14.933 156.6 14.42 156.87 13.88H157.905ZM161.55 18.083V17.498H158.886V16.508H158.238V17.498H155.691V18.083H157.878C157.284 18.857 156.348 19.595 155.484 19.973C155.619 20.09 155.826 20.315 155.925 20.477C156.735 20.063 157.617 19.325 158.238 18.515V20.693H158.886V18.506C159.489 19.307 160.353 20.063 161.181 20.468C161.28 20.297 161.487 20.054 161.64 19.919C160.776 19.568 159.84 18.848 159.264 18.083H161.55Z" fill="white" fill-opacity="0.31"/>
<path d="M165.069 19.982C164.511 19.325 163.701 18.506 163.053 17.984L162.468 18.497C163.107 19.019 163.881 19.793 164.457 20.504L165.069 19.982Z" fill="white" fill-opacity="0.31"/>
<path d="M179.514 16.877H175.824V13.736H179.01V13.079H171.972V13.736H175.14V16.877H171.504V17.534H175.14V20.684H175.824V17.534H179.514V16.877ZM172.602 14.357C172.944 15.014 173.286 15.887 173.412 16.418L174.042 16.202C173.925 15.671 173.556 14.825 173.187 14.177L172.602 14.357ZM177.372 16.445C177.723 15.905 178.155 15.05 178.479 14.33L177.777 14.132C177.552 14.78 177.138 15.698 176.805 16.256L177.372 16.445Z" fill="white" fill-opacity="0.31"/>
<path d="M181.134 13.34V14.015H187.884V13.34H181.134ZM181.701 16.256V16.931H187.146V16.256H181.701ZM180.621 19.352V20.036H188.361V19.352H180.621Z" fill="white" fill-opacity="0.31"/>
<path d="M192.069 19.982C191.511 19.325 190.701 18.506 190.053 17.984L189.468 18.497C190.107 19.019 190.881 19.793 191.457 20.504L192.069 19.982Z" fill="white" fill-opacity="0.31"/>
<path d="M203.328 18.353C204.237 19.055 205.344 20.054 205.857 20.693L206.469 20.288C205.911 19.631 204.795 18.677 203.895 18.002L203.328 18.353ZM201.015 18.029C200.493 18.803 199.431 19.703 198.468 20.252C198.621 20.369 198.864 20.576 198.999 20.72C199.98 20.117 201.051 19.181 201.717 18.299L201.015 18.029ZM200.124 13.781H204.867V16.553H200.124V13.781ZM199.449 13.142V17.201H205.569V13.142H199.449Z" fill="white" fill-opacity="0.31"/>
<path d="M213.723 16.814H209.97V15.905H213.723V16.814ZM209.97 18.335V17.399H213.723V18.335H209.97ZM215.433 14.258V13.628H210.852C210.987 13.304 211.095 12.962 211.203 12.629L210.537 12.467C210.429 12.854 210.294 13.241 210.141 13.628H207.603V14.258H209.862C209.286 15.446 208.467 16.526 207.387 17.255C207.522 17.381 207.729 17.633 207.81 17.768C208.377 17.372 208.881 16.886 209.313 16.346V20.684H209.97V18.911H213.723V19.847C213.723 19.982 213.669 20.027 213.516 20.036C213.354 20.036 212.814 20.045 212.22 20.018C212.31 20.207 212.409 20.477 212.436 20.675C213.201 20.675 213.705 20.666 214.002 20.558C214.29 20.45 214.38 20.252 214.38 19.847V15.302H210.042C210.24 14.969 210.42 14.609 210.591 14.258H215.433Z" fill="white" fill-opacity="0.31"/>
<path d="M220.176 13.916C219.726 13.556 218.835 13.124 218.124 12.872L217.755 13.358C218.475 13.628 219.357 14.096 219.798 14.456L220.176 13.916ZM219.402 15.608C218.952 15.23 218.061 14.78 217.359 14.519L216.954 14.987C217.674 15.275 218.556 15.761 218.979 16.13L219.402 15.608ZM220.833 18.497C222.057 19.1 223.29 19.892 224.01 20.558L224.451 20.054C223.713 19.397 222.426 18.605 221.184 18.029L220.833 18.497ZM221.211 16.571C221.436 15.428 221.436 14.078 221.445 12.566H220.761C220.752 14.123 220.77 15.464 220.536 16.571H216.549V17.192H220.365C219.888 18.569 218.844 19.55 216.549 20.099C216.684 20.243 216.864 20.495 216.936 20.657C219.474 20.018 220.581 18.83 221.058 17.192H224.487V16.571H221.211Z" fill="white" fill-opacity="0.31"/>
<path d="M232.722 13.871C232.47 13.547 231.948 12.989 231.561 12.593L231.048 12.917C231.435 13.331 231.939 13.898 232.182 14.24L232.722 13.871ZM231.669 16.751C231.345 17.48 230.868 18.101 230.292 18.605C229.68 18.092 229.194 17.462 228.852 16.751H231.669ZM232.119 16.067L231.993 16.103H228.978C229.086 15.797 229.194 15.473 229.293 15.149H233.343L233.352 14.501H229.473C229.617 13.889 229.734 13.241 229.833 12.548L229.086 12.44C229.005 13.169 228.879 13.853 228.708 14.501H227.088C227.322 14.033 227.583 13.43 227.736 12.854L227.034 12.719C226.872 13.403 226.539 14.132 226.431 14.312C226.332 14.51 226.233 14.636 226.107 14.672C226.179 14.825 226.287 15.158 226.332 15.302C226.413 15.203 226.719 15.149 227.286 15.149H228.537C227.943 17.012 226.953 18.479 225.315 19.478C225.477 19.595 225.711 19.838 225.81 19.991C226.971 19.271 227.817 18.353 228.438 17.246C228.798 17.921 229.248 18.506 229.779 19.001C229.014 19.541 228.114 19.919 227.187 20.135C227.304 20.279 227.466 20.54 227.538 20.711C228.537 20.441 229.482 20.027 230.31 19.433C231.111 20.036 232.092 20.468 233.235 20.72C233.325 20.531 233.505 20.261 233.649 20.126C232.551 19.919 231.606 19.541 230.823 19.01C231.597 18.317 232.2 17.426 232.569 16.292L232.119 16.067Z" fill="white" fill-opacity="0.31"/>
<path d="M236.385 12.503C235.908 13.862 235.134 15.203 234.306 16.076C234.414 16.229 234.612 16.571 234.684 16.733C234.945 16.445 235.215 16.103 235.458 15.743V20.666H236.097V14.708C236.448 14.078 236.763 13.385 237.015 12.701L236.385 12.503ZM237.834 14.879H239.418C239.373 15.131 239.283 15.455 239.067 15.779H237.834V14.879ZM239.994 13.637C239.832 13.889 239.643 14.168 239.454 14.366H237.78C238.005 14.132 238.194 13.88 238.374 13.637H239.994ZM241.434 15.779H239.715C239.877 15.455 239.949 15.14 239.967 14.879H241.434V15.779ZM241.704 16.679C241.281 16.976 240.624 17.372 240.066 17.66C239.868 17.237 239.58 16.841 239.184 16.517C239.256 16.445 239.328 16.373 239.391 16.292H242.055V14.366H240.147C240.408 14.06 240.669 13.7 240.867 13.367L240.471 13.079L240.354 13.115H238.725C238.824 12.935 238.932 12.764 239.022 12.593L238.392 12.476C238.014 13.232 237.312 14.186 236.322 14.879C236.466 14.969 236.664 15.158 236.754 15.302C236.925 15.176 237.078 15.05 237.231 14.906V16.292H238.617C238.194 16.67 237.546 17.039 236.601 17.345C236.736 17.453 236.898 17.642 236.979 17.759C237.78 17.498 238.374 17.183 238.815 16.859C238.95 16.976 239.085 17.129 239.193 17.282C238.59 17.813 237.483 18.371 236.61 18.632C236.718 18.731 236.889 18.929 236.979 19.064C237.762 18.776 238.77 18.218 239.427 17.66C239.517 17.822 239.589 17.993 239.643 18.164C238.923 18.884 237.618 19.568 236.52 19.901C236.655 20.009 236.817 20.225 236.907 20.369C237.87 20.036 238.995 19.415 239.769 18.713C239.85 19.28 239.751 19.766 239.562 19.955C239.427 20.108 239.292 20.126 239.121 20.126C238.959 20.126 238.761 20.117 238.527 20.09C238.626 20.252 238.68 20.504 238.689 20.666C238.887 20.684 239.085 20.684 239.238 20.684C239.571 20.684 239.796 20.621 240.021 20.378C240.408 20.009 240.534 19.055 240.228 18.11C240.372 18.047 240.525 17.975 240.669 17.903C240.984 18.875 241.542 19.73 242.271 20.18C242.361 20.018 242.55 19.793 242.703 19.676C241.992 19.307 241.443 18.524 241.155 17.66C241.506 17.48 241.848 17.291 242.154 17.093L241.704 16.679Z" fill="white" fill-opacity="0.31"/>
<path d="M249.381 18.182H243.549V18.821H249.381V18.182ZM249.669 16.463C249.813 15.347 249.957 13.979 250.029 13.034L249.543 12.98L249.435 13.016H244.233V13.664H249.318C249.237 14.456 249.12 15.554 249.003 16.463H245.511C245.583 15.815 245.664 15.023 245.718 14.366L245.061 14.321C244.998 15.194 244.881 16.364 244.773 17.084H250.515C250.335 18.947 250.146 19.739 249.885 19.973C249.795 20.054 249.669 20.072 249.489 20.072C249.264 20.072 248.688 20.063 248.112 20.009C248.22 20.189 248.31 20.459 248.319 20.657C248.895 20.693 249.444 20.693 249.732 20.675C250.056 20.657 250.254 20.594 250.452 20.387C250.803 20.045 251.001 19.118 251.208 16.778C251.226 16.679 251.235 16.463 251.235 16.463H249.669Z" fill="white" fill-opacity="0.31"/>
<path d="M255.708 14.051C255.537 14.591 255.258 15.041 254.916 15.401C254.574 15.221 254.205 15.05 253.836 14.897C253.98 14.645 254.142 14.357 254.304 14.051H255.708ZM256.383 16.238C256.122 16.058 255.816 15.86 255.465 15.68C255.924 15.14 256.266 14.447 256.455 13.556L256.086 13.457L255.978 13.475H254.574C254.727 13.16 254.853 12.827 254.961 12.53L254.322 12.422C254.205 12.755 254.052 13.115 253.89 13.475H252.504V14.051H253.602C253.404 14.447 253.179 14.825 252.981 15.113C253.476 15.329 253.989 15.563 254.457 15.806C253.881 16.238 253.17 16.499 252.396 16.634C252.504 16.769 252.63 17.021 252.684 17.174C253.575 16.976 254.376 16.643 255.015 16.112C255.348 16.301 255.636 16.499 255.879 16.67L256.383 16.238ZM256.644 17.633C256.689 17.399 256.725 17.147 256.761 16.886H256.077C256.05 17.147 256.014 17.399 255.96 17.633H253.089V18.218H255.78C255.402 19.19 254.583 19.838 252.612 20.171C252.729 20.306 252.891 20.576 252.954 20.747C255.186 20.315 256.077 19.478 256.5 18.218H259.173C259.056 19.352 258.903 19.838 258.732 20C258.651 20.063 258.561 20.081 258.381 20.081C258.21 20.081 257.715 20.072 257.229 20.027C257.328 20.198 257.391 20.441 257.409 20.621C257.931 20.657 258.417 20.666 258.669 20.648C258.957 20.63 259.137 20.576 259.317 20.405C259.578 20.144 259.749 19.496 259.911 17.93C259.929 17.831 259.938 17.633 259.938 17.633H256.644ZM259.56 13.61C259.326 14.258 258.957 14.798 258.507 15.239C258.066 14.78 257.733 14.222 257.499 13.61H259.56ZM259.947 13.007L259.83 13.034H256.716V13.61H257.256L256.923 13.7C257.184 14.447 257.553 15.095 258.039 15.635C257.562 15.977 257.022 16.229 256.455 16.4C256.572 16.535 256.725 16.769 256.797 16.922C257.4 16.715 257.976 16.436 258.48 16.058C258.966 16.472 259.533 16.796 260.199 17.012C260.289 16.85 260.469 16.607 260.604 16.472C259.974 16.292 259.425 16.013 258.957 15.653C259.578 15.023 260.064 14.213 260.343 13.151L259.947 13.007Z" fill="white" fill-opacity="0.31"/>
<path d="M93.033 26.042C92.835 25.682 92.421 25.124 92.061 24.728L91.485 24.98C91.845 25.394 92.25 25.97 92.421 26.339L93.033 26.042ZM94.347 26.627C94.365 26.249 94.374 25.898 94.374 25.556V24.494H93.708V25.547C93.708 25.889 93.699 26.249 93.672 26.627H90.774V27.293H93.6C93.384 28.877 92.673 30.677 90.522 32.081C90.693 32.189 90.936 32.405 91.044 32.567C93.348 31.037 94.068 29.039 94.284 27.293H97.371C97.245 30.335 97.11 31.532 96.84 31.802C96.741 31.91 96.633 31.937 96.453 31.937C96.228 31.937 95.652 31.937 95.058 31.874C95.184 32.081 95.274 32.369 95.292 32.567C95.832 32.603 96.408 32.612 96.714 32.585C97.047 32.558 97.254 32.477 97.461 32.234C97.812 31.811 97.929 30.551 98.073 26.978C98.073 26.879 98.082 26.627 98.082 26.627H94.347ZM96.291 30.101C96.057 29.633 95.517 28.913 95.04 28.391L94.491 28.661C94.95 29.201 95.481 29.957 95.706 30.425L96.291 30.101Z" fill="white" fill-opacity="0.31"/>
<path d="M102.996 24.638C102.843 24.998 102.546 25.511 102.321 25.835L102.753 26.042C103.005 25.745 103.293 25.295 103.554 24.89L102.996 24.638ZM100.89 25.853C100.8 25.52 100.557 25.043 100.305 24.692L99.819 24.89C100.062 25.259 100.296 25.754 100.377 26.069L100.89 25.853ZM101.331 28.373H101.952V27.14C102.384 27.446 102.942 27.887 103.158 28.094L103.527 27.608C103.32 27.455 102.546 26.951 102.096 26.69H103.788V26.132H101.952V24.467H101.331V26.132H99.477V26.69H101.124C100.683 27.275 100.017 27.824 99.387 28.094C99.513 28.22 99.675 28.445 99.747 28.598C100.296 28.31 100.881 27.815 101.331 27.284V28.373ZM102.699 29.66C102.501 30.128 102.213 30.524 101.862 30.848C101.538 30.686 101.178 30.515 100.845 30.371C100.971 30.164 101.106 29.912 101.241 29.66H102.699ZM103.14 31.595C102.942 31.451 102.672 31.289 102.384 31.127C102.861 30.623 103.23 29.993 103.464 29.219L103.086 29.066L102.987 29.093H101.52C101.592 28.931 101.646 28.778 101.709 28.625L101.115 28.517C101.052 28.706 100.971 28.895 100.881 29.093H99.666V29.66H100.602C100.413 30.011 100.215 30.344 100.026 30.614C100.467 30.776 100.953 31.001 101.403 31.235C100.818 31.649 100.134 31.937 99.405 32.099C99.522 32.225 99.657 32.468 99.72 32.612C100.539 32.396 101.304 32.045 101.943 31.532C102.249 31.703 102.519 31.883 102.726 32.036L103.14 31.595ZM106.263 26.825C106.128 27.86 105.912 28.76 105.588 29.516C105.246 28.715 104.994 27.797 104.823 26.825H106.263ZM107.496 26.825V26.204H104.958C105.084 25.7 105.192 25.178 105.264 24.647L104.652 24.557C104.427 26.114 104.022 27.617 103.338 28.562C103.482 28.652 103.734 28.859 103.842 28.967C104.067 28.625 104.274 28.229 104.454 27.788C104.652 28.679 104.904 29.489 105.246 30.191C104.742 31.046 104.04 31.703 103.068 32.18C103.185 32.306 103.374 32.576 103.437 32.72C104.355 32.225 105.039 31.595 105.57 30.812C106.011 31.577 106.578 32.189 107.271 32.612C107.37 32.441 107.559 32.216 107.712 32.09C106.965 31.694 106.38 31.028 105.921 30.209C106.398 29.282 106.695 28.166 106.902 26.825H107.496Z" fill="white" fill-opacity="0.31"/>
<path d="M111.177 28.994L111.087 28.382L110.151 28.679V26.897H111.168V26.276H110.151V24.476H109.53V26.276H108.414V26.897H109.53V28.868C109.062 29.003 108.639 29.129 108.306 29.228L108.468 29.867C108.792 29.768 109.152 29.66 109.53 29.534V31.847C109.53 31.982 109.485 32.018 109.377 32.018C109.278 32.018 108.918 32.018 108.531 32.009C108.621 32.198 108.702 32.468 108.729 32.63C109.296 32.639 109.638 32.612 109.845 32.504C110.07 32.396 110.151 32.225 110.151 31.856V29.327L111.177 28.994ZM112.203 28.166C112.212 27.95 112.212 27.761 112.212 27.563V27.176H113.949V28.166H112.203ZM115.641 25.448V26.591H112.212V25.448H115.641ZM115.704 31.775H112.941V30.416H115.704V31.775ZM116.586 28.742V28.166H114.588V27.176H116.28V24.863H111.564V27.563C111.564 28.985 111.483 30.938 110.556 32.315C110.709 32.378 110.988 32.567 111.096 32.693C111.852 31.586 112.095 30.074 112.176 28.742H113.949V29.849H112.356V32.702H112.941V32.333H115.704V32.666H116.316V29.849H114.588V28.742H116.586Z" fill="white" fill-opacity="0.31"/>
<path d="M119.385 28.769C119.385 29.993 119.241 31.289 117.891 32.261C118.044 32.36 118.26 32.558 118.359 32.693C119.808 31.622 119.997 30.164 119.997 28.778V26.789H119.385V28.769ZM118.539 27.275H117.945V30.128H118.539V27.275ZM121.401 25.673V25.178H119.214C119.313 24.98 119.412 24.791 119.493 24.584L118.872 24.44C118.584 25.205 118.044 25.943 117.432 26.42C117.603 26.501 117.873 26.654 117.999 26.753C118.314 26.465 118.638 26.096 118.917 25.673H119.43C119.628 26.006 119.808 26.402 119.898 26.672L120.483 26.456C120.42 26.249 120.267 25.943 120.114 25.673H121.401ZM120.528 27.491H122.616V28.265H120.852V31.883H121.455V28.841H122.616V32.684H123.237V28.841H124.461V31.154C124.461 31.244 124.434 31.271 124.344 31.271C124.254 31.28 123.984 31.28 123.642 31.271C123.723 31.442 123.804 31.676 123.831 31.856C124.29 31.856 124.623 31.847 124.83 31.748C125.046 31.64 125.1 31.478 125.1 31.163V28.265H123.237V27.491H125.46V26.924H120.528V27.491ZM122.724 25.178C122.823 24.98 122.904 24.791 122.958 24.584L122.328 24.44C122.094 25.142 121.671 25.835 121.158 26.276C121.32 26.357 121.59 26.555 121.707 26.663C121.986 26.393 122.238 26.051 122.463 25.673H123.12C123.381 25.997 123.651 26.402 123.768 26.672L124.335 26.411C124.245 26.204 124.056 25.925 123.849 25.673H125.46V25.178H122.724Z" fill="white" fill-opacity="0.31"/>
<path d="M132.093 28.193V30.272C132.093 30.938 132.246 31.145 132.921 31.145H133.794C134.352 31.145 134.532 30.857 134.604 29.723C134.415 29.678 134.145 29.57 134.001 29.462C133.983 30.389 133.938 30.524 133.731 30.524H133.011C132.786 30.524 132.75 30.488 132.75 30.272V28.193H134.523V27.608H132.084V26.294H134.154V25.709H132.084V24.503H131.418V25.709H130.365C130.482 25.439 130.581 25.16 130.662 24.881L130.023 24.737C129.807 25.529 129.429 26.33 128.952 26.861C129.105 26.933 129.393 27.104 129.51 27.203C129.726 26.951 129.915 26.636 130.095 26.294H131.418V27.608H128.898V28.193H130.509C130.365 29.363 130.005 30.218 128.655 30.695C128.799 30.821 128.979 31.064 129.06 31.226C130.572 30.641 131.004 29.606 131.175 28.193H132.093ZM128.511 26.222C128.232 25.79 127.611 25.187 127.08 24.773L126.567 25.133C127.098 25.565 127.701 26.204 127.962 26.636L128.511 26.222ZM128.277 27.896H126.522V28.526H127.629V31.235C127.251 31.415 126.837 31.739 126.441 32.117L126.882 32.684C127.386 32.126 127.872 31.676 128.205 31.676C128.403 31.676 128.673 31.928 129.024 32.144C129.618 32.486 130.347 32.585 131.391 32.585C132.264 32.585 133.776 32.531 134.469 32.486C134.478 32.297 134.586 31.973 134.667 31.793C133.776 31.892 132.426 31.955 131.4 31.955C130.446 31.955 129.708 31.901 129.15 31.568C128.727 31.325 128.52 31.109 128.277 31.073V27.896Z" fill="white" fill-opacity="0.31"/>
<path d="M142.281 25.988H139.311V25.277H142.281V25.988ZM142.281 27.176H139.311V26.456H142.281V27.176ZM142.92 24.773H138.699V27.689H142.92V24.773ZM138.033 28.391L137.124 28.67V26.897H138.114V26.276H137.124V24.485H136.503V26.276H135.396V26.897H136.503V28.868C136.044 29.012 135.63 29.138 135.297 29.219L135.459 29.867C135.783 29.768 136.134 29.66 136.503 29.534V31.847C136.503 31.982 136.458 32.018 136.341 32.018C136.242 32.018 135.891 32.018 135.504 32.009C135.594 32.198 135.675 32.468 135.702 32.63C136.269 32.639 136.611 32.612 136.818 32.504C137.043 32.396 137.124 32.225 137.124 31.856V29.336C137.457 29.219 137.79 29.12 138.114 29.003L138.033 28.391ZM141.111 30.497H142.974V29.948H141.111V28.895H143.415V28.328H138.285V28.895H140.481V31.739C139.968 31.523 139.572 31.109 139.311 30.353C139.392 30.056 139.446 29.723 139.491 29.39L138.87 29.318C138.726 30.65 138.33 31.658 137.529 32.288C137.673 32.378 137.925 32.585 138.024 32.693C138.501 32.27 138.852 31.721 139.104 31.046C139.689 32.306 140.634 32.549 141.93 32.549H143.496C143.523 32.378 143.604 32.099 143.694 31.955C143.397 31.964 142.173 31.964 141.957 31.964C141.66 31.964 141.372 31.946 141.111 31.91V30.497Z" fill="white" fill-opacity="0.31"/>
<path d="M146.439 24.494C145.935 25.853 145.107 27.203 144.225 28.058C144.342 28.22 144.531 28.562 144.603 28.715C144.909 28.4 145.215 28.031 145.494 27.626V32.675H146.151V26.618C146.502 25.997 146.817 25.34 147.069 24.692L146.439 24.494ZM148.356 30.389C147.978 31.082 147.357 31.784 146.745 32.252C146.898 32.333 147.159 32.549 147.276 32.666C147.879 32.153 148.545 31.37 148.995 30.587L148.356 30.389ZM150.39 30.713C150.984 31.307 151.65 32.144 151.947 32.702L152.514 32.333C152.199 31.802 151.533 31.001 150.912 30.416L150.39 30.713ZM148.824 27.032H150.579V29.228H148.824V27.032ZM151.227 29.228V27.032H152.505V26.384H151.227V24.566H150.579V26.384H148.824V24.575H148.176V26.384H147.015V27.032H148.176V29.228H146.799V29.885H152.613V29.228H151.227Z" fill="white" fill-opacity="0.31"/>
<path d="M159.552 28.535C159.084 29.408 158.391 30.092 157.536 30.632C156.69 30.083 156.042 29.381 155.592 28.535H159.552ZM160.065 27.851L159.93 27.878H157.824V26.501H161.253V25.844H157.824V24.476H157.14V25.844H153.729V26.501H157.14V27.878H154.134V28.535H155.088L154.89 28.607C155.376 29.579 156.042 30.371 156.897 30.992C155.853 31.514 154.638 31.847 153.36 32.054C153.486 32.207 153.666 32.513 153.729 32.693C155.088 32.432 156.393 32.027 157.509 31.406C158.526 32.018 159.777 32.423 161.226 32.648C161.316 32.45 161.496 32.162 161.64 32C160.299 31.838 159.138 31.496 158.157 30.992C159.192 30.29 160.011 29.363 160.524 28.139L160.065 27.851Z" fill="white" fill-opacity="0.31"/>
<path d="M165.069 28.382L164.178 28.661V26.897H165.132V26.276H164.178V24.476H163.557V26.276H162.405V26.897H163.557V28.841C163.071 28.994 162.63 29.129 162.279 29.228L162.45 29.867C162.783 29.768 163.161 29.651 163.557 29.516V31.883C163.557 32.009 163.512 32.045 163.395 32.045C163.296 32.054 162.945 32.054 162.558 32.036C162.648 32.225 162.729 32.495 162.756 32.666C163.323 32.675 163.665 32.648 163.872 32.54C164.097 32.432 164.178 32.252 164.178 31.883V29.309L165.159 28.994L165.069 28.382ZM166.032 30.164C166.419 30.632 166.842 31.307 167.013 31.739L167.571 31.406C167.382 30.974 166.941 30.326 166.545 29.858L166.032 30.164ZM170.613 28.004V27.383H168.264V26.24H170.181V25.628H168.264V24.512H167.625V25.628H165.717V26.24H167.625V27.383H165.258V28.004H168.813V28.994H165.366V29.606H168.813V31.874C168.813 32 168.768 32.036 168.642 32.045C168.507 32.054 168.03 32.054 167.526 32.036C167.616 32.225 167.706 32.486 167.733 32.684C168.399 32.684 168.831 32.675 169.101 32.567C169.362 32.468 169.443 32.288 169.443 31.874V29.606H170.55V28.994H169.443V28.004H170.613Z" fill="white" fill-opacity="0.31"/>
</svg>
